<svg xmlns="http://www.w3.org/2000/svg" xmlns:xlink="http://www.w3.org/1999/xlink" width="576" height="344" contentScriptType="application/ecmascript" contentStyleType="text/css" style="width:576px;height:344px" preserveAspectRatio="none" version="1.1" viewBox="0 0 576 344" zoomAndPan="magnify"><defs><filter id="f1s0gseue6cebi" width="300%" height="300%" x="-1" y="-1"><feGaussianBlur result="blurOut" stdDeviation="2"/><feColorMatrix in="blurOut" result="blurOut2" type="matrix" values="0 0 0 0 0 0 0 0 0 0 0 0 0 0 0 0 0 0 .4 0"/><feOffset dx="4" dy="4" in="blurOut2" result="blurOut3"/><feBlend in="SourceGraphic" in2="blurOut3" mode="normal"/></filter></defs><g><polygon fill="#FFF" points="22 24 193 24 200 47.609 240 47.609 240 234 22 234 22 24" filter="url(#f1s0gseue6cebi)" style="stroke:#000;stroke-width:1.5"/><line style="stroke:#000;stroke-width:1.5" x1="22" x2="200" y1="47.609" y2="47.609"/><text x="26" y="40.533" fill="#000" font-family="sans-serif" font-size="14" font-weight="bold" lengthAdjust="spacingAndGlyphs" textLength="165">Payment Method Plugin</text><polygon fill="#FFF" points="392 24 501 24 508 47.609 554 47.609 554 234 392 234 392 24" filter="url(#f1s0gseue6cebi)" style="stroke:#000;stroke-width:1.5"/><line style="stroke:#000;stroke-width:1.5" x1="392" x2="508" y1="47.609" y2="47.609"/><text x="396" y="40.533" fill="#000" font-family="sans-serif" font-size="14" font-weight="bold" lengthAdjust="spacingAndGlyphs" textLength="103">Storage Plugin</text><polygon fill="#FFF" points="264 133 325 133 332 156.609 368 156.609 368 332 264 332 264 133" filter="url(#f1s0gseue6cebi)" style="stroke:#000;stroke-width:1.5"/><line style="stroke:#000;stroke-width:1.5" x1="264" x2="332" y1="156.609" y2="156.609"/><text x="268" y="149.533" fill="#000" font-family="sans-serif" font-size="14" font-weight="bold" lengthAdjust="spacingAndGlyphs" textLength="55">Indy CLI</text><rect style="stroke:#a80036;stroke-width:1.5" width="169" height="37.609" x="50.5" y="60" fill="#FEFECE" filter="url(#f1s0gseue6cebi)"/><rect style="stroke:#a80036;stroke-width:1.5" width="10" height="5" x="45.5" y="65" fill="#FEFECE"/><rect style="stroke:#a80036;stroke-width:1.5" width="10" height="5" x="45.5" y="87.609" fill="#FEFECE"/><text x="60.5" y="84.533" fill="#000" font-family="sans-serif" font-size="14" lengthAdjust="spacingAndGlyphs" textLength="149">Payment Method Plugin</text><ellipse cx="131" cy="188" fill="#FEFECE" filter="url(#f1s0gseue6cebi)" rx="8" ry="8" style="stroke:#a80036;stroke-width:2"/><text x="45.5" y="219.533" fill="#000" font-family="sans-serif" font-size="14" lengthAdjust="spacingAndGlyphs" textLength="171">Payment Method Plugin Init</text><rect style="stroke:#a80036;stroke-width:1.5" width="113" height="37.609" x="412.5" y="60" fill="#FEFECE" filter="url(#f1s0gseue6cebi)"/><rect style="stroke:#a80036;stroke-width:1.5" width="10" height="5" x="407.5" y="65" fill="#FEFECE"/><rect style="stroke:#a80036;stroke-width:1.5" width="10" height="5" x="407.5" y="87.609" fill="#FEFECE"/><text x="422.5" y="84.533" fill="#000" font-family="sans-serif" font-size="14" lengthAdjust="spacingAndGlyphs" textLength="93">Storage Plugin</text><ellipse cx="473" cy="188" fill="#FEFECE" filter="url(#f1s0gseue6cebi)" rx="8" ry="8" style="stroke:#a80036;stroke-width:2"/><text x="415.5" y="219.533" fill="#000" font-family="sans-serif" font-size="14" lengthAdjust="spacingAndGlyphs" textLength="115">Storage Plugin Init</text><rect style="stroke:#a80036;stroke-width:1.5" width="65" height="37.609" x="283.5" y="169" fill="#FEFECE" filter="url(#f1s0gseue6cebi)"/><rect style="stroke:#a80036;stroke-width:1.5" width="10" height="5" x="278.5" y="174" fill="#FEFECE"/><rect style="stroke:#a80036;stroke-width:1.5" width="10" height="5" x="278.5" y="196.609" fill="#FEFECE"/><text x="293.5" y="193.533" fill="#000" font-family="sans-serif" font-size="14" lengthAdjust="spacingAndGlyphs" textLength="45">Libindy</text><rect style="stroke:#a80036;stroke-width:1.5" width="71" height="37.609" x="280.5" y="278" fill="#FEFECE" filter="url(#f1s0gseue6cebi)"/><rect style="stroke:#a80036;stroke-width:1.5" width="10" height="5" x="275.5" y="283" fill="#FEFECE"/><rect style="stroke:#a80036;stroke-width:1.5" width="10" height="5" x="275.5" y="305.609" fill="#FEFECE"/><text x="290.5" y="302.533" fill="#000" font-family="sans-serif" font-size="14" lengthAdjust="spacingAndGlyphs" textLength="51">Indy CLI</text><path id="payment_method_plugin-i_payment_method_plugin_init" fill="none" d="M134.321,98.151 C133.526,119.441 132.224,154.248 131.51,173.364" style="stroke:#a80036;stroke-width:1;stroke-dasharray:7,7"/><polygon fill="#A80036" points="131.308 178.761 135.642 169.917 131.495 173.764 127.648 169.618 131.308 178.761" style="stroke:#a80036;stroke-width:1"/><path id="storage_plugin-i_storage_plugin_init" fill="none" d="M469.679,98.151 C470.474,119.441 471.776,154.248 472.49,173.364" style="stroke:#a80036;stroke-width:1;stroke-dasharray:7,7"/><polygon fill="#A80036" points="472.692 178.761 476.352 169.618 472.505 173.764 468.358 169.917 472.692 178.761" style="stroke:#a80036;stroke-width:1"/><path id="payment_method_plugin-libindy" fill="none" d="M185.022,98.101 C202.909,105.429 222.867,114.622 240,125 C259.038,136.531 278.448,152.45 292.887,165.27" style="stroke:#a80036;stroke-width:1"/><polygon fill="#A80036" points="296.823 168.798 292.791 159.812 293.1 165.461 287.451 165.769 296.823 168.798" style="stroke:#a80036;stroke-width:1"/><path id="storage_plugin-libindy" fill="none" d="M435.326,98.172 C421.59,105.969 405.739,115.467 392,125 C373.969,137.511 354.83,153.139 340.27,165.575" style="stroke:#a80036;stroke-width:1"/><polygon fill="#A80036" points="336.289 168.992 345.724 166.165 340.083 165.735 340.513 160.095 336.289 168.992" style="stroke:#a80036;stroke-width:1"/><path id="libindy-cli" fill="none" d="M316,212.214 C316,231.872 316,259.666 316,277.7599" style="stroke:#a80036;stroke-width:1"/><polygon fill="#A80036" points="316 207.151 312 216.151 316 212.151 320 216.151 316 207.151" style="stroke:#a80036;stroke-width:1"/><path id="cli-i_payment_method_plugin_init" fill="none" d="M284.571,277.8219 C243.608,254.1299 173.759,213.731 144.509,196.813" style="stroke:#a80036;stroke-width:1"/><polygon fill="#A80036" points="140.174 194.306 145.96 202.276 144.501 196.81 149.967 195.352 140.174 194.306" style="stroke:#a80036;stroke-width:1"/><path id="cli-i_storage_plugin_init" fill="none" d="M342.525,277.9227 C376.339,254.8774 433.52,215.907 459.47,198.221" style="stroke:#a80036;stroke-width:1"/><polygon fill="#A80036" points="463.649 195.373 453.959 197.136 459.517 198.189 458.465 203.747 463.649 195.373" style="stroke:#a80036;stroke-width:1"/></g></svg>