<svg xmlns="http://www.w3.org/2000/svg" xmlns:xlink="http://www.w3.org/1999/xlink" width="1037" height="778" contentScriptType="application/ecmascript" contentStyleType="text/css" style="width:1037px;height:778px" preserveAspectRatio="none" version="1.1" viewBox="0 0 1037 778" zoomAndPan="magnify"><defs><filter id="fo89j2b7kxt12" width="300%" height="300%" x="-1" y="-1"><feGaussianBlur result="blurOut" stdDeviation="2"/><feColorMatrix in="blurOut" result="blurOut2" type="matrix" values="0 0 0 0 0 0 0 0 0 0 0 0 0 0 0 0 0 0 .4 0"/><feOffset dx="4" dy="4" in="blurOut2" result="blurOut3"/><feBlend in="SourceGraphic" in2="blurOut3" mode="normal"/></filter></defs><g><polygon fill="#FFF" points="22 70 90 70 97 93.609 1015 93.609 1015 686 22 686 22 70" filter="url(#fo89j2b7kxt12)" style="stroke:#000;stroke-width:1.5"/><line style="stroke:#000;stroke-width:1.5" x1="22" x2="97" y1="93.609" y2="93.609"/><text x="26" y="86.533" fill="#000" font-family="sans-serif" font-size="14" font-weight="bold" lengthAdjust="spacingAndGlyphs" textLength="62">Indy SDK</text><ellipse cx="774" cy="160" fill="#FEFECE" filter="url(#fo89j2b7kxt12)" rx="8" ry="8" style="stroke:#a80036;stroke-width:2"/><text x="723.5" y="191.533" fill="#000" font-family="sans-serif" font-size="14" lengthAdjust="spacingAndGlyphs" textLength="101">Non-secrets API</text><polygon fill="#FBFB77" points="867.5 122.5 867.5 197.906 998.5 197.906 998.5 132.5 988.5 122.5 867.5 122.5" filter="url(#fo89j2b7kxt12)" style="stroke:#a80036;stroke-width:1"/><polygon fill="#FBFB77" points="867.5 122.5 867.5 156 783.001 160 867.5 164 867.5 197.906 998.5 197.906 998.5 132.5 988.5 122.5 867.5 122.5" style="stroke:#a80036;stroke-width:1"/><line style="stroke:#a80036;stroke-width:1" x1="988.5" x2="988.5" y1="122.5" y2="132.5"/><line style="stroke:#a80036;stroke-width:1" x1="998.5" x2="988.5" y1="132.5" y2="132.5"/><text x="873.5" y="140.995" fill="#000" font-family="sans-serif" font-size="13" lengthAdjust="spacingAndGlyphs" textLength="107">An API that allows</text><text x="873.5" y="157.347" fill="#000" font-family="sans-serif" font-size="13" lengthAdjust="spacingAndGlyphs" textLength="110">to store application</text><text x="873.5" y="173.698" fill="#000" font-family="sans-serif" font-size="13" lengthAdjust="spacingAndGlyphs" textLength="73">specific data</text><text x="873.5" y="190.05" fill="#000" font-family="sans-serif" font-size="13" lengthAdjust="spacingAndGlyphs" textLength="91">in a secure way</text><ellipse cx="637" cy="160" fill="#FEFECE" filter="url(#fo89j2b7kxt12)" rx="8" ry="8" style="stroke:#a80036;stroke-width:2"/><text x="600.5" y="191.533" fill="#000" font-family="sans-serif" font-size="14" lengthAdjust="spacingAndGlyphs" textLength="73">Secrets API</text><polygon fill="#FBFB77" points="392.5 106 392.5 214.109 557.5 214.109 557.5 116 547.5 106 392.5 106" filter="url(#fo89j2b7kxt12)" style="stroke:#a80036;stroke-width:1"/><polygon fill="#FBFB77" points="392.5 106 392.5 214.109 557.5 214.109 557.5 164 617.307 160 557.5 156 557.5 116 547.5 106 392.5 106" style="stroke:#a80036;stroke-width:1"/><line style="stroke:#a80036;stroke-width:1" x1="547.5" x2="547.5" y1="106" y2="116"/><line style="stroke:#a80036;stroke-width:1" x1="557.5" x2="547.5" y1="116" y2="116"/><text x="398.5" y="124.495" fill="#000" font-family="sans-serif" font-size="13" lengthAdjust="spacingAndGlyphs" textLength="107">An API that allows</text><text x="398.5" y="140.847" fill="#000" font-family="sans-serif" font-size="13" lengthAdjust="spacingAndGlyphs" textLength="107">creation of secrets</text><text x="398.5" y="157.198" fill="#000" font-family="sans-serif" font-size="13" lengthAdjust="spacingAndGlyphs" textLength="140">and wallet-style access.</text><text x="398.5" y="173.55" fill="#000" font-family="sans-serif" font-size="13" lengthAdjust="spacingAndGlyphs" textLength="140">Existing API for creation</text><text x="398.5" y="189.901" fill="#000" font-family="sans-serif" font-size="13" lengthAdjust="spacingAndGlyphs" textLength="107">of DIDs, CredDefs,</text><text x="398.5" y="206.253" fill="#000" font-family="sans-serif" font-size="13" lengthAdjust="spacingAndGlyphs" textLength="144">MasterSecrets and etc...</text><ellipse cx="317" cy="160" fill="#FEFECE" filter="url(#fo89j2b7kxt12)" rx="8" ry="8" style="stroke:#a80036;stroke-width:2"/><text x="285" y="191.533" fill="#000" font-family="sans-serif" font-size="14" lengthAdjust="spacingAndGlyphs" textLength="64">Wallet API</text><polygon fill="#FBFB77" points="38.5 122.5 38.5 197.906 241.5 197.906 241.5 132.5 231.5 122.5 38.5 122.5" filter="url(#fo89j2b7kxt12)" style="stroke:#a80036;stroke-width:1"/><polygon fill="#FBFB77" points="38.5 122.5 38.5 197.906 241.5 197.906 241.5 164 297.775 160 241.5 156 241.5 132.5 231.5 122.5 38.5 122.5" style="stroke:#a80036;stroke-width:1"/><line style="stroke:#a80036;stroke-width:1" x1="231.5" x2="231.5" y1="122.5" y2="132.5"/><line style="stroke:#a80036;stroke-width:1" x1="241.5" x2="231.5" y1="132.5" y2="132.5"/><text x="44.5" y="140.995" fill="#000" font-family="sans-serif" font-size="13" lengthAdjust="spacingAndGlyphs" textLength="182">An API for wallets management</text><text x="44.5" y="157.347" fill="#000" font-family="sans-serif" font-size="13" lengthAdjust="spacingAndGlyphs" textLength="159">Will be extended to register</text><text x="44.5" y="173.698" fill="#000" font-family="sans-serif" font-size="13" lengthAdjust="spacingAndGlyphs" textLength="127">custom wallet storage</text><text x="44.5" y="190.05" fill="#000" font-family="sans-serif" font-size="13" lengthAdjust="spacingAndGlyphs" textLength="88">implementation</text><rect style="stroke:#a80036;stroke-width:1.5" width="81" height="37.609" x="596.5" y="274" fill="#FEFECE" filter="url(#fo89j2b7kxt12)"/><rect style="stroke:#a80036;stroke-width:1.5" width="10" height="5" x="591.5" y="279" fill="#FEFECE"/><rect style="stroke:#a80036;stroke-width:1.5" width="10" height="5" x="591.5" y="301.609" fill="#FEFECE"/><text x="606.5" y="298.533" fill="#000" font-family="sans-serif" font-size="14" lengthAdjust="spacingAndGlyphs" textLength="61">API Layer</text><ellipse cx="637" cy="409.5" fill="#FEFECE" filter="url(#fo89j2b7kxt12)" rx="8" ry="8" style="stroke:#a80036;stroke-width:2"/><text x="562.5" y="441.033" fill="#000" font-family="sans-serif" font-size="14" lengthAdjust="spacingAndGlyphs" textLength="149">Wallet Service Interface</text><polygon fill="#FBFB77" points="754 372 754 447.406 978 447.406 978 382 968 372 754 372" filter="url(#fo89j2b7kxt12)" style="stroke:#a80036;stroke-width:1"/><polygon fill="#FBFB77" points="754 372 754 405.5 646.079 409.5 754 413.5 754 447.406 978 447.406 978 382 968 372 754 372" style="stroke:#a80036;stroke-width:1"/><line style="stroke:#a80036;stroke-width:1" x1="968" x2="968" y1="372" y2="382"/><line style="stroke:#a80036;stroke-width:1" x1="978" x2="968" y1="382" y2="382"/><text x="760" y="390.495" fill="#000" font-family="sans-serif" font-size="13" lengthAdjust="spacingAndGlyphs" textLength="170">Generic key storage interface</text><text x="760" y="406.847" fill="#000" font-family="sans-serif" font-size="13" lengthAdjust="spacingAndGlyphs" textLength="158">with a support of filtering by</text><text x="760" y="423.198" fill="#000" font-family="sans-serif" font-size="13" lengthAdjust="spacingAndGlyphs" textLength="203">tags. Consumes unecrypted values</text><text x="760" y="439.55" fill="#000" font-family="sans-serif" font-size="13" lengthAdjust="spacingAndGlyphs" textLength="71">and queries.</text><rect style="stroke:#a80036;stroke-width:1.5" width="110" height="37.609" x="582" y="509.5" fill="#FEFECE" filter="url(#fo89j2b7kxt12)"/><rect style="stroke:#a80036;stroke-width:1.5" width="10" height="5" x="577" y="514.5" fill="#FEFECE"/><rect style="stroke:#a80036;stroke-width:1.5" width="10" height="5" x="577" y="537.109" fill="#FEFECE"/><text x="592" y="534.033" fill="#000" font-family="sans-serif" font-size="14" lengthAdjust="spacingAndGlyphs" textLength="90">Wallet Service</text><polygon fill="#FBFB77" points="727.5 507 727.5 549.703 938.5 549.703 938.5 517 928.5 507 727.5 507" filter="url(#fo89j2b7kxt12)" style="stroke:#a80036;stroke-width:1"/><polygon fill="#FBFB77" points="727.5 507 727.5 524.5 692.125 528.5 727.5 532.5 727.5 549.703 938.5 549.703 938.5 517 928.5 507 727.5 507" style="stroke:#a80036;stroke-width:1"/><line style="stroke:#a80036;stroke-width:1" x1="928.5" x2="928.5" y1="507" y2="517"/><line style="stroke:#a80036;stroke-width:1" x1="938.5" x2="928.5" y1="517" y2="517"/><text x="733.5" y="525.495" fill="#000" font-family="sans-serif" font-size="13" lengthAdjust="spacingAndGlyphs" textLength="190">All values and queries encryption</text><text x="733.5" y="541.847" fill="#000" font-family="sans-serif" font-size="13" lengthAdjust="spacingAndGlyphs" textLength="104">is performed here.</text><ellipse cx="637" cy="640" fill="#FEFECE" filter="url(#fo89j2b7kxt12)" rx="8" ry="8" style="stroke:#a80036;stroke-width:2"/><text x="582.5" y="671.533" fill="#000" font-family="sans-serif" font-size="14" lengthAdjust="spacingAndGlyphs" textLength="109">Storage Interface</text><rect style="stroke:#a80036;stroke-width:1.5" width="119" height="37.609" x="427.5" y="509.5" fill="#FEFECE" filter="url(#fo89j2b7kxt12)"/><rect style="stroke:#a80036;stroke-width:1.5" width="10" height="5" x="422.5" y="514.5" fill="#FEFECE"/><rect style="stroke:#a80036;stroke-width:1.5" width="10" height="5" x="422.5" y="537.109" fill="#FEFECE"/><text x="437.5" y="534.033" fill="#000" font-family="sans-serif" font-size="14" lengthAdjust="spacingAndGlyphs" textLength="99">Default Storage</text><rect style="stroke:#a80036;stroke-width:1.5" width="89" height="37.609" x="592.5" y="8" fill="#FEFECE" filter="url(#fo89j2b7kxt12)"/><rect style="stroke:#a80036;stroke-width:1.5" width="10" height="5" x="587.5" y="13" fill="#FEFECE"/><rect style="stroke:#a80036;stroke-width:1.5" width="10" height="5" x="587.5" y="35.609" fill="#FEFECE"/><text x="602.5" y="32.533" fill="#000" font-family="sans-serif" font-size="14" lengthAdjust="spacingAndGlyphs" textLength="69">Application</text><rect style="stroke:#a80036;stroke-width:1.5" width="139" height="37.609" x="567.5" y="730" fill="#FEFECE" filter="url(#fo89j2b7kxt12)"/><rect style="stroke:#a80036;stroke-width:1.5" width="10" height="5" x="562.5" y="735" fill="#FEFECE"/><rect style="stroke:#a80036;stroke-width:1.5" width="10" height="5" x="562.5" y="757.609" fill="#FEFECE"/><text x="577.5" y="754.533" fill="#000" font-family="sans-serif" font-size="14" lengthAdjust="spacingAndGlyphs" textLength="119">Enterprise Storage</text><path id="application-i_non_secrets_api" fill="none" d="M675.981,46.171 C684,50.768 692.094,56.098 699,62 C728.815,87.477 754.559,126.521 766.651,146.41" style="stroke:#a80036;stroke-width:1;stroke-dasharray:7,7"/><polygon fill="#A80036" points="769.291 150.808 768.087 141.033 766.717 146.521 761.229 145.151 769.291 150.808" style="stroke:#a80036;stroke-width:1"/><path id="application-i_secrets_api" fill="none" d="M637,46.215 C637,72.9 637,122.006 637,145.623" style="stroke:#a80036;stroke-width:1;stroke-dasharray:7,7"/><polygon fill="#A80036" points="637 150.787 641 141.787 637 145.787 633 141.787 637 150.787" style="stroke:#a80036;stroke-width:1"/><path id="application-i_wallet_api" fill="none" d="M592.461,29.152 C527.278,31.602 409.855,39.141 375,62 C344.447,82.038 327.653,124.25 320.769,145.774" style="stroke:#a80036;stroke-width:1;stroke-dasharray:7,7"/><polygon fill="#A80036" points="319.229 150.774 325.7 143.35 320.7 145.995 318.055 140.995 319.229 150.774" style="stroke:#a80036;stroke-width:1"/><path id="i_secrets_api-indy_api" fill="none" d="M637,169.195 C637,189.92 637,244.824 637,273.684" style="stroke:#a80036;stroke-width:1"/><path id="i_wallet_api-indy_api" fill="none" d="M323.65,169.043 C333.638,180.619 353.63,201.91 375,214 C447.08,254.78 542.629,276.207 596.161,285.717" style="stroke:#a80036;stroke-width:1"/><path id="i_non_secrets_api-indy_api" fill="none" d="M765.43,169.195 C743.756,189.92 686.337,244.824 656.155,273.684" style="stroke:#a80036;stroke-width:1"/><path id="indy_api-i_wallet_service" fill="none" d="M637,312.143 C637,335.297 637,374.799 637,395.292" style="stroke:#a80036;stroke-width:1;stroke-dasharray:7,7"/><polygon fill="#A80036" points="637 400.306 641 391.306 637 395.306 633 391.306 637 400.306" style="stroke:#a80036;stroke-width:1"/><path id="i_wallet_service-wallet_service" fill="none" d="M637,418.542 C637,437.128 637,483.445 637,509.307" style="stroke:#a80036;stroke-width:1"/><path id="wallet_service-i_storage_api" fill="none" d="M637,547.582 C637,569.569 637,606.159 637,625.715" style="stroke:#a80036;stroke-width:1;stroke-dasharray:7,7"/><polygon fill="#A80036" points="637 630.753 641 621.753 637 625.753 633 621.753 637 630.753" style="stroke:#a80036;stroke-width:1"/><path id="default_storage-wallet_service" fill="none" d="M546.766,528.5 C558.397,528.5 570.029,528.5 581.661,528.5" style="stroke:#a80036;stroke-width:1"/><path id="i_storage_api-enterprise_storage" fill="none" d="M637,649.042 C637,666.053 637,706.0498 637,729.6574" style="stroke:#a80036;stroke-width:1"/></g></svg>