<svg xmlns="http://www.w3.org/2000/svg" xmlns:xlink="http://www.w3.org/1999/xlink" width="1189.8" height="3156.3" contentScriptType="application/ecmascript" contentStyleType="text/css" style="width:1189px;height:3156px" preserveAspectRatio="none" version="1.1" viewBox="0 0 1189 3156" zoomAndPan="magnify"><defs><filter id="fnaxi9x" width="300%" height="300%" x="-1" y="-1"><feGaussianBlur result="blurOut" stdDeviation="1.8"/><feColorMatrix in="blurOut" result="blurOut2" type="matrix" values="0 0 0 0 0 0 0 0 0 0 0 0 0 0 0 0 0 0 .4 0"/><feOffset dx="3.6" dy="3.6" in="blurOut2" result="blurOut3"/><feBlend in="SourceGraphic" in2="blurOut3" mode="normal"/></filter></defs><g><text x="536.175" y="20.819" fill="#000" font-family="sans-serif" font-size="12.6" font-weight="bold" lengthAdjust="spacingAndGlyphs" textLength="116.1">Libindy anoncreds</text><rect style="stroke:#a80036;stroke-width:.9" width="382.95" height="3125.358" x="21.6" y="30.689" fill="#ADD8E6"/><text x="195.975" y="41.663" fill="#000" font-family="sans-serif" font-size="11.7" font-weight="bold" lengthAdjust="spacingAndGlyphs" textLength="34.2">Issuer</text><rect style="stroke:#a80036;stroke-width:.9" width="377.55" height="3125.358" x="498.6" y="30.689" fill="#DDD"/><text x="668.925" y="41.663" fill="#000" font-family="sans-serif" font-size="11.7" font-weight="bold" lengthAdjust="spacingAndGlyphs" textLength="36.9">Prover</text><line style="stroke:#a80036;stroke-width:.9;stroke-dasharray:5,5" x1="95.4" x2="95.4" y1="122.531" y2="3078.559"/><line style="stroke:#a80036;stroke-width:.9;stroke-dasharray:5,5" x1="380.25" x2="380.25" y1="122.531" y2="3078.559"/><line style="stroke:#a80036;stroke-width:.9;stroke-dasharray:5,5" x1="523.8" x2="523.8" y1="122.531" y2="3078.559"/><line style="stroke:#a80036;stroke-width:.9;stroke-dasharray:5,5" x1="800.55" x2="800.55" y1="122.531" y2="3078.559"/><line style="stroke:#a80036;stroke-width:.9;stroke-dasharray:5,5" x1="922.05" x2="922.05" y1="122.531" y2="3078.559"/><line style="stroke:#a80036;stroke-width:.9;stroke-dasharray:5,5" x1="1125.45" x2="1125.45" y1="122.531" y2="3078.559"/><rect style="stroke:#a80036;stroke-width:1.35" width="100.8" height="27.089" x="43.2" y="90.943" fill="#FEFECE" filter="url(#fnaxi9x)"/><text x="49.5" y="109.061" fill="#000" font-family="sans-serif" font-size="12.6" lengthAdjust="spacingAndGlyphs" textLength="88.2">Walleted Issuer</text><rect style="stroke:#a80036;stroke-width:1.35" width="100.8" height="27.089" x="43.2" y="3077.659" fill="#FEFECE" filter="url(#fnaxi9x)"/><text x="49.5" y="3095.777" fill="#000" font-family="sans-serif" font-size="12.6" lengthAdjust="spacingAndGlyphs" textLength="88.2">Walleted Issuer</text><text x="360.45" y="119.861" fill="#000" font-family="sans-serif" font-size="12.6" lengthAdjust="spacingAndGlyphs" textLength="35.1">Issuer</text><ellipse cx="380.7" cy="56.743" fill="#FEFECE" filter="url(#fnaxi9x)" rx="7.2" ry="7.2" style="stroke:#a80036;stroke-width:1.8"/><path fill="#FEFECE" d="M380.7,63.9426 L380.7,88.2426 M369,71.1426 L392.4,71.1426 M380.7,88.2426 L369,101.7426 M380.7,88.2426 L392.4,101.7426" filter="url(#fnaxi9x)" style="stroke:#a80036;stroke-width:1.8"/><text x="360.45" y="3089.477" fill="#000" font-family="sans-serif" font-size="12.6" lengthAdjust="spacingAndGlyphs" textLength="35.1">Issuer</text><ellipse cx="380.7" cy="3101.147" fill="#FEFECE" filter="url(#fnaxi9x)" rx="7.2" ry="7.2" style="stroke:#a80036;stroke-width:1.8"/><path fill="#FEFECE" d="M380.7,3108.3473 L380.7,3132.6473 M369,3115.5473 L392.4,3115.5473 M380.7,3132.6473 L369,3146.1473 M380.7,3132.6473 L392.4,3146.1473" filter="url(#fnaxi9x)" style="stroke:#a80036;stroke-width:1.8"/><text x="502.2" y="119.861" fill="#000" font-family="sans-serif" font-size="12.6" lengthAdjust="spacingAndGlyphs" textLength="37.8">Prover</text><ellipse cx="523.8" cy="56.743" fill="#FEFECE" filter="url(#fnaxi9x)" rx="7.2" ry="7.2" style="stroke:#a80036;stroke-width:1.8"/><path fill="#FEFECE" d="M523.8,63.9426 L523.8,88.2426 M512.1,71.1426 L535.5,71.1426 M523.8,88.2426 L512.1,101.7426 M523.8,88.2426 L535.5,101.7426" filter="url(#fnaxi9x)" style="stroke:#a80036;stroke-width:1.8"/><text x="502.2" y="3089.477" fill="#000" font-family="sans-serif" font-size="12.6" lengthAdjust="spacingAndGlyphs" textLength="37.8">Prover</text><ellipse cx="523.8" cy="3101.147" fill="#FEFECE" filter="url(#fnaxi9x)" rx="7.2" ry="7.2" style="stroke:#a80036;stroke-width:1.8"/><path fill="#FEFECE" d="M523.8,3108.3473 L523.8,3132.6473 M512.1,3115.5473 L535.5,3115.5473 M523.8,3132.6473 L512.1,3146.1473 M523.8,3132.6473 L535.5,3146.1473" filter="url(#fnaxi9x)" style="stroke:#a80036;stroke-width:1.8"/><rect style="stroke:#a80036;stroke-width:1.35" width="103.5" height="27.089" x="747.45" y="90.943" fill="#FEFECE" filter="url(#fnaxi9x)"/><text x="753.75" y="109.061" fill="#000" font-family="sans-serif" font-size="12.6" lengthAdjust="spacingAndGlyphs" textLength="90.9">Walleted Prover</text><rect style="stroke:#a80036;stroke-width:1.35" width="103.5" height="27.089" x="747.45" y="3077.659" fill="#FEFECE" filter="url(#fnaxi9x)"/><text x="753.75" y="3095.777" fill="#000" font-family="sans-serif" font-size="12.6" lengthAdjust="spacingAndGlyphs" textLength="90.9">Walleted Prover</text><text x="899.55" y="119.861" fill="#000" font-family="sans-serif" font-size="12.6" lengthAdjust="spacingAndGlyphs" textLength="40.5">Verifier</text><ellipse cx="922.5" cy="56.743" fill="#FEFECE" filter="url(#fnaxi9x)" rx="7.2" ry="7.2" style="stroke:#a80036;stroke-width:1.8"/><path fill="#FEFECE" d="M922.5,63.9426 L922.5,88.2426 M910.8,71.1426 L934.2,71.1426 M922.5,88.2426 L910.8,101.7426 M922.5,88.2426 L934.2,101.7426" filter="url(#fnaxi9x)" style="stroke:#a80036;stroke-width:1.8"/><text x="899.55" y="3089.477" fill="#000" font-family="sans-serif" font-size="12.6" lengthAdjust="spacingAndGlyphs" textLength="40.5">Verifier</text><ellipse cx="922.5" cy="3101.147" fill="#FEFECE" filter="url(#fnaxi9x)" rx="7.2" ry="7.2" style="stroke:#a80036;stroke-width:1.8"/><path fill="#FEFECE" d="M922.5,3108.3473 L922.5,3132.6473 M910.8,3115.5473 L934.2,3115.5473 M922.5,3132.6473 L910.8,3146.1473 M922.5,3132.6473 L934.2,3146.1473" filter="url(#fnaxi9x)" style="stroke:#a80036;stroke-width:1.8"/><rect style="stroke:#a80036;stroke-width:1.35" width="53.1" height="27.089" x="1097.55" y="90.943" fill="#FEFECE" filter="url(#fnaxi9x)"/><text x="1103.85" y="109.061" fill="#000" font-family="sans-serif" font-size="12.6" lengthAdjust="spacingAndGlyphs" textLength="40.5">Ledger</text><rect style="stroke:#a80036;stroke-width:1.35" width="53.1" height="27.089" x="1097.55" y="3077.659" fill="#FEFECE" filter="url(#fnaxi9x)"/><text x="1103.85" y="3095.777" fill="#000" font-family="sans-serif" font-size="12.6" lengthAdjust="spacingAndGlyphs" textLength="40.5">Ledger</text><polygon fill="#FFF" points="38.7 136.031 38.7 238.631 1180.8 238.631 1180.8 145.031 1171.8 136.031 38.7 136.031" filter="url(#fnaxi9x)" style="stroke:#a80036;stroke-width:.9"/><line style="stroke:#a80036;stroke-width:.9" x1="1171.8" x2="1171.8" y1="136.031" y2="145.031"/><line style="stroke:#a80036;stroke-width:.9" x1="1180.8" x2="1171.8" y1="145.031" y2="145.031"/><text x="466.425" y="151.506" fill="#000" font-family="sans-serif" font-size="11.7" lengthAdjust="spacingAndGlyphs" textLength="186.3">dashed arrows: a value from Ledger</text><text x="466.425" y="164.96" fill="#000" font-family="sans-serif" font-size="11.7" font-weight="bold" lengthAdjust="spacingAndGlyphs" textLength="48.6">bold text</text><text x="515.025" y="164.96" fill="#000" font-family="sans-serif" font-size="11.7" lengthAdjust="spacingAndGlyphs" textLength="143.1">: anoncreds libindy API call</text><text x="466.425" y="178.414" fill="red" font-family="sans-serif" font-size="11.7" lengthAdjust="spacingAndGlyphs" textLength="19.8">red:</text><text x="489.825" y="178.414" fill="#000" font-family="sans-serif" font-size="11.7" lengthAdjust="spacingAndGlyphs" textLength="223.2">internal communication with walleted entity</text><text x="466.425" y="191.867" fill="green" font-family="sans-serif" font-size="11.7" lengthAdjust="spacingAndGlyphs" textLength="32.4">green:</text><text x="502.425" y="191.867" fill="#000" font-family="sans-serif" font-size="11.7" lengthAdjust="spacingAndGlyphs" textLength="167.4">submit/get to/from secure wallet</text><text x="466.425" y="205.321" fill="#00F" font-family="sans-serif" font-size="11.7" lengthAdjust="spacingAndGlyphs" textLength="25.2">blue:</text><text x="495.225" y="205.321" fill="#000" font-family="sans-serif" font-size="11.7" lengthAdjust="spacingAndGlyphs" textLength="134.1">submit/get to/from Ledger</text><text x="466.425" y="218.775" fill="#000" font-family="sans-serif" font-size="11.7" lengthAdjust="spacingAndGlyphs" textLength="275.4">black: communication between Issuer/Prover/Verifier</text><rect style="stroke:#eee;stroke-width:.9" width="1183.05" height="2.7" x="2.7" y="267.805" fill="#EEE" filter="url(#fnaxi9x)"/><line style="stroke:#000;stroke-width:.9" x1="2.7" x2="1185.75" y1="267.805" y2="267.805"/><line style="stroke:#000;stroke-width:.9" x1="2.7" x2="1185.75" y1="270.505" y2="270.505"/><rect style="stroke:#000;stroke-width:1.8" width="198.9" height="24.794" x="494.775" y="256.308" fill="#EEE" filter="url(#fnaxi9x)"/><text x="500.175" y="274.26" fill="#000" font-family="sans-serif" font-size="15.3" font-weight="bold" lengthAdjust="spacingAndGlyphs" textLength="186.3">Create Credential Schema</text><polygon fill="#A80036" points="105.3 304.502 96.3 308.102 105.3 311.702 101.7 308.102" style="stroke:#a80036;stroke-width:.9"/><line style="stroke:#a80036;stroke-width:.9" x1="99.9" x2="379.8" y1="308.102" y2="308.102"/><text x="110.7" y="304.676" fill="#000" font-family="sans-serif" font-size="11.7" font-weight="bold" lengthAdjust="spacingAndGlyphs" textLength="167.4">1. indy_issuer_create_schema</text><polygon fill="#A80036" points="369.9 330.556 378.9 334.156 369.9 337.756 373.5 334.156" style="stroke:#a80036;stroke-width:.9"/><line style="stroke:#a80036;stroke-width:.9" x1="95.4" x2="375.3" y1="334.156" y2="334.156"/><text x="101.7" y="330.73" fill="#000" font-family="sans-serif" font-size="11.7" lengthAdjust="spacingAndGlyphs" textLength="162">&lt;schema_id&gt;, &lt;schema_json&gt;</text><polygon fill="#00F" points="1115.1 356.61 1124.1 360.21 1115.1 363.81 1118.7 360.21" style="stroke:#00f;stroke-width:.9"/><line style="stroke:#00f;stroke-width:.9" x1="380.7" x2="1120.5" y1="360.21" y2="360.21"/><text x="387" y="356.784" fill="#000" font-family="sans-serif" font-size="11.7" lengthAdjust="spacingAndGlyphs" textLength="99">send SCHEMA txn</text><rect style="stroke:#eee;stroke-width:.9" width="1183.05" height="2.7" x="2.7" y="388.76" fill="#EEE" filter="url(#fnaxi9x)"/><line style="stroke:#000;stroke-width:.9" x1="2.7" x2="1185.75" y1="388.76" y2="388.76"/><line style="stroke:#000;stroke-width:.9" x1="2.7" x2="1185.75" y1="391.46" y2="391.46"/><rect style="stroke:#000;stroke-width:1.8" width="212.4" height="24.794" x="488.025" y="377.264" fill="#EEE" filter="url(#fnaxi9x)"/><text x="493.425" y="395.215" fill="#000" font-family="sans-serif" font-size="15.3" font-weight="bold" lengthAdjust="spacingAndGlyphs" textLength="199.8">Create Credential Definition</text><polygon fill="#00F" points="1115.1 425.457 1124.1 429.057 1115.1 432.657 1118.7 429.057" style="stroke:#00f;stroke-width:.9"/><line style="stroke:#00f;stroke-width:.9;stroke-dasharray:2,2" x1="380.7" x2="1120.5" y1="429.057" y2="429.057"/><text x="387" y="425.631" fill="#000" font-family="sans-serif" font-size="11.7" lengthAdjust="spacingAndGlyphs" textLength="129.6">send GET_SCHEMA req</text><polygon fill="#00F" points="390.6 451.511 381.6 455.111 390.6 458.711 387 455.111" style="stroke:#00f;stroke-width:.9"/><line style="stroke:#00f;stroke-width:.9;stroke-dasharray:2,2" x1="385.2" x2="1125" y1="455.111" y2="455.111"/><text x="396" y="451.685" fill="#000" font-family="sans-serif" font-size="11.7" lengthAdjust="spacingAndGlyphs" textLength="55.8">&lt;schema&gt;</text><polygon fill="#A80036" points="105.3 477.565 96.3 481.165 105.3 484.765 101.7 481.165" style="stroke:#a80036;stroke-width:.9"/><line style="stroke:#a80036;stroke-width:.9" x1="99.9" x2="379.8" y1="481.165" y2="481.165"/><text x="110.7" y="477.739" fill="#000" font-family="sans-serif" font-size="11.7" font-weight="bold" lengthAdjust="spacingAndGlyphs" textLength="263.7">1. indy_issuer_create_and_store_credential_def</text><line style="stroke:green;stroke-width:.9" x1="95.4" x2="133.2" y1="508.072" y2="508.072"/><line style="stroke:green;stroke-width:.9" x1="133.2" x2="133.2" y1="508.072" y2="519.772"/><line style="stroke:green;stroke-width:.9" x1="96.3" x2="133.2" y1="519.772" y2="519.772"/><polygon fill="green" points="105.3 516.172 96.3 519.772 105.3 523.372 101.7 519.772" style="stroke:green;stroke-width:.9"/><text x="101.7" y="503.793" fill="#000" font-family="sans-serif" font-size="11.7" lengthAdjust="spacingAndGlyphs" textLength="244.8">store public/private keys and correctness proof</text><polygon fill="#A80036" points="369.9 541.372 378.9 544.972 369.9 548.572 373.5 544.972" style="stroke:#a80036;stroke-width:.9"/><line style="stroke:#a80036;stroke-width:.9" x1="95.4" x2="375.3" y1="544.972" y2="544.972"/><text x="101.7" y="541.547" fill="#000" font-family="sans-serif" font-size="11.7" lengthAdjust="spacingAndGlyphs" textLength="169.2">&lt;cred_def_id&gt;, &lt;cred_def_json&gt;</text><polygon fill="#00F" points="1115.1 567.426 1124.1 571.026 1115.1 574.626 1118.7 571.026" style="stroke:#00f;stroke-width:.9"/><line style="stroke:#00f;stroke-width:.9" x1="380.7" x2="1120.5" y1="571.026" y2="571.026"/><text x="387" y="567.601" fill="#000" font-family="sans-serif" font-size="11.7" lengthAdjust="spacingAndGlyphs" textLength="110.7">send CRED_DEF txn</text><rect style="stroke:#eee;stroke-width:.9" width="1183.05" height="2.7" x="2.7" y="599.577" fill="#EEE" filter="url(#fnaxi9x)"/><line style="stroke:#000;stroke-width:.9" x1="2.7" x2="1185.75" y1="599.577" y2="599.577"/><line style="stroke:#000;stroke-width:.9" x1="2.7" x2="1185.75" y1="602.277" y2="602.277"/><rect style="stroke:#000;stroke-width:1.8" width="208.8" height="24.794" x="489.825" y="588.08" fill="#EEE" filter="url(#fnaxi9x)"/><text x="495.225" y="606.031" fill="#000" font-family="sans-serif" font-size="15.3" font-weight="bold" lengthAdjust="spacingAndGlyphs" textLength="196.2">Create Revocation Registry</text><polygon fill="#A80036" points="105.3 636.274 96.3 639.874 105.3 643.474 101.7 639.874" style="stroke:#a80036;stroke-width:.9"/><line style="stroke:#a80036;stroke-width:.9" x1="99.9" x2="379.8" y1="639.874" y2="639.874"/><text x="110.7" y="636.448" fill="#000" font-family="sans-serif" font-size="11.7" font-weight="bold" lengthAdjust="spacingAndGlyphs" textLength="240.3">3. indy_issuer_create_and_store_revoc_reg</text><line style="stroke:green;stroke-width:.9" x1="95.4" x2="133.2" y1="666.781" y2="666.781"/><line style="stroke:green;stroke-width:.9" x1="133.2" x2="133.2" y1="666.781" y2="678.481"/><line style="stroke:green;stroke-width:.9" x1="96.3" x2="133.2" y1="678.481" y2="678.481"/><polygon fill="green" points="105.3 674.881 96.3 678.481 105.3 682.081 101.7 678.481" style="stroke:green;stroke-width:.9"/><text x="101.7" y="662.502" fill="#000" font-family="sans-serif" font-size="11.7" lengthAdjust="spacingAndGlyphs" textLength="45">get keys</text><line style="stroke:green;stroke-width:.9" x1="95.4" x2="133.2" y1="717.989" y2="717.989"/><line style="stroke:green;stroke-width:.9" x1="133.2" x2="133.2" y1="717.989" y2="729.689"/><line style="stroke:green;stroke-width:.9" x1="96.3" x2="133.2" y1="729.689" y2="729.689"/><polygon fill="green" points="105.3 726.089 96.3 729.689 105.3 733.289 101.7 729.689" style="stroke:green;stroke-width:.9"/><text x="101.7" y="700.256" fill="#000" font-family="sans-serif" font-size="11.7" lengthAdjust="spacingAndGlyphs" textLength="207">store revoc_reg_def, revoc_reg_accum,</text><text x="101.7" y="713.71" fill="#000" font-family="sans-serif" font-size="11.7" lengthAdjust="spacingAndGlyphs" textLength="127.8">priv_key, tails_generator</text><polygon fill="#A80036" points="369.9 764.789 378.9 768.389 369.9 771.989 373.5 768.389" style="stroke:#a80036;stroke-width:.9"/><line style="stroke:#a80036;stroke-width:.9" x1="95.4" x2="375.3" y1="768.389" y2="768.389"/><text x="101.7" y="751.463" fill="#000" font-family="sans-serif" font-size="11.7" lengthAdjust="spacingAndGlyphs" textLength="207.9">&lt;revoc_reg_id&gt;, &lt;revoc_reg_def_json&gt;,</text><text x="101.7" y="764.917" fill="#000" font-family="sans-serif" font-size="11.7" lengthAdjust="spacingAndGlyphs" textLength="126">&lt;revoc_reg_entry_json&gt;</text><polygon fill="#00F" points="1115.1 790.797 1124.1 794.397 1115.1 797.997 1118.7 794.397" style="stroke:#00f;stroke-width:.9"/><line style="stroke:#00f;stroke-width:.9" x1="380.7" x2="1120.5" y1="794.397" y2="794.397"/><text x="387" y="790.971" fill="#000" font-family="sans-serif" font-size="11.7" lengthAdjust="spacingAndGlyphs" textLength="151.2">send REVOC_REG_DEF txn</text><polygon fill="#00F" points="1115.1 816.851 1124.1 820.451 1115.1 824.051 1118.7 820.451" style="stroke:#00f;stroke-width:.9"/><line style="stroke:#00f;stroke-width:.9" x1="380.7" x2="1120.5" y1="820.451" y2="820.451"/><text x="387" y="817.025" fill="#000" font-family="sans-serif" font-size="11.7" lengthAdjust="spacingAndGlyphs" textLength="167.4">send REVOC_REG_ENTRY txn</text><rect style="stroke:#eee;stroke-width:.9" width="1183.05" height="2.7" x="2.7" y="849.001" fill="#EEE" filter="url(#fnaxi9x)"/><line style="stroke:#000;stroke-width:.9" x1="2.7" x2="1185.75" y1="849.001" y2="849.001"/><line style="stroke:#000;stroke-width:.9" x1="2.7" x2="1185.75" y1="851.701" y2="851.701"/><rect style="stroke:#000;stroke-width:1.8" width="161.1" height="24.794" x="513.675" y="837.505" fill="#EEE" filter="url(#fnaxi9x)"/><text x="519.075" y="855.456" fill="#000" font-family="sans-serif" font-size="15.3" font-weight="bold" lengthAdjust="spacingAndGlyphs" textLength="148.5">Create Master secret</text><polygon fill="#A80036" points="790.2 885.698 799.2 889.298 790.2 892.898 793.8 889.298" style="stroke:#a80036;stroke-width:.9"/><line style="stroke:#a80036;stroke-width:.9" x1="523.8" x2="795.6" y1="889.298" y2="889.298"/><text x="530.1" y="885.872" fill="#000" font-family="sans-serif" font-size="11.7" font-weight="bold" lengthAdjust="spacingAndGlyphs" textLength="199.8">5.indy_prover_create_master_secret</text><line style="stroke:green;stroke-width:.9" x1="801" x2="838.8" y1="916.206" y2="916.206"/><line style="stroke:green;stroke-width:.9" x1="838.8" x2="838.8" y1="916.206" y2="927.906"/><line style="stroke:green;stroke-width:.9" x1="801.9" x2="838.8" y1="927.906" y2="927.906"/><polygon fill="green" points="810.9 924.306 801.9 927.906 810.9 931.506 807.3 927.906" style="stroke:green;stroke-width:.9"/><text x="807.3" y="911.926" fill="#000" font-family="sans-serif" font-size="11.7" lengthAdjust="spacingAndGlyphs" textLength="101.7">store master secret</text><polygon fill="#A80036" points="533.7 949.506 524.7 953.106 533.7 956.706 530.1 953.106" style="stroke:#a80036;stroke-width:.9"/><line style="stroke:#a80036;stroke-width:.9" x1="528.3" x2="800.1" y1="953.106" y2="953.106"/><text x="539.1" y="949.68" fill="#000" font-family="sans-serif" font-size="11.7" lengthAdjust="spacingAndGlyphs" textLength="104.4">&lt;master_secret_id&gt;</text><rect style="stroke:#eee;stroke-width:.9" width="1183.05" height="2.7" x="2.7" y="981.656" fill="#EEE" filter="url(#fnaxi9x)"/><line style="stroke:#000;stroke-width:.9" x1="2.7" x2="1185.75" y1="981.656" y2="981.656"/><line style="stroke:#000;stroke-width:.9" x1="2.7" x2="1185.75" y1="984.356" y2="984.356"/><rect style="stroke:#000;stroke-width:1.8" width="179.1" height="24.794" x="504.675" y="970.16" fill="#EEE" filter="url(#fnaxi9x)"/><text x="510.075" y="988.111" fill="#000" font-family="sans-serif" font-size="15.3" font-weight="bold" lengthAdjust="spacingAndGlyphs" textLength="166.5">Create Credential Offer</text><polygon fill="#A80036" points="105.3 1018.353 96.3 1021.953 105.3 1025.553 101.7 1021.953" style="stroke:#a80036;stroke-width:.9"/><line style="stroke:#a80036;stroke-width:.9" x1="99.9" x2="379.8" y1="1021.953" y2="1021.953"/><text x="110.7" y="1018.528" fill="#000" font-family="sans-serif" font-size="11.7" font-weight="bold" lengthAdjust="spacingAndGlyphs" textLength="210.6">1. indy_issuer_create_credential_offer</text><line style="stroke:green;stroke-width:.9" x1="95.4" x2="133.2" y1="1048.861" y2="1048.861"/><line style="stroke:green;stroke-width:.9" x1="133.2" x2="133.2" y1="1048.861" y2="1060.561"/><line style="stroke:green;stroke-width:.9" x1="96.3" x2="133.2" y1="1060.561" y2="1060.561"/><polygon fill="green" points="105.3 1056.961 96.3 1060.561 105.3 1064.161 101.7 1060.561" style="stroke:green;stroke-width:.9"/><text x="101.7" y="1044.581" fill="#000" font-family="sans-serif" font-size="11.7" lengthAdjust="spacingAndGlyphs" textLength="156.6">get cred def correctness proof</text><polygon fill="#A80036" points="369.9 1082.161 378.9 1085.761 369.9 1089.361 373.5 1085.761" style="stroke:#a80036;stroke-width:.9"/><line style="stroke:#a80036;stroke-width:.9" x1="95.4" x2="375.3" y1="1085.761" y2="1085.761"/><text x="101.7" y="1082.335" fill="#000" font-family="sans-serif" font-size="11.7" lengthAdjust="spacingAndGlyphs" textLength="94.5">&lt;cred_offer_json&gt;</text><polygon fill="#000" points="513 1108.215 522 1111.815 513 1115.415 516.6 1111.815" style="stroke:#000;stroke-width:.9"/><line style="stroke:#000;stroke-width:.9" x1="380.7" x2="518.4" y1="1111.815" y2="1111.815"/><text x="387" y="1108.389" fill="#000" font-family="sans-serif" font-size="11.7" lengthAdjust="spacingAndGlyphs" textLength="106.2">send credential offer</text><rect style="stroke:#eee;stroke-width:.9" width="1183.05" height="2.7" x="2.7" y="1140.365" fill="#EEE" filter="url(#fnaxi9x)"/><line style="stroke:#000;stroke-width:.9" x1="2.7" x2="1185.75" y1="1140.365" y2="1140.365"/><line style="stroke:#000;stroke-width:.9" x1="2.7" x2="1185.75" y1="1143.065" y2="1143.065"/><rect style="stroke:#000;stroke-width:1.8" width="230.4" height="24.794" x="479.025" y="1128.869" fill="#EEE" filter="url(#fnaxi9x)"/><text x="484.425" y="1146.82" fill="#000" font-family="sans-serif" font-size="15.3" font-weight="bold" lengthAdjust="spacingAndGlyphs" textLength="217.8">Request and Issue Credentials</text><polygon fill="#00F" points="1115.1 1177.062 1124.1 1180.662 1115.1 1184.262 1118.7 1180.662" style="stroke:#00f;stroke-width:.9"/><line style="stroke:#00f;stroke-width:.9;stroke-dasharray:2,2" x1="523.8" x2="1120.5" y1="1180.662" y2="1180.662"/><text x="530.1" y="1177.236" fill="#000" font-family="sans-serif" font-size="11.7" lengthAdjust="spacingAndGlyphs" textLength="141.3">send GET_CRED_DEF req</text><polygon fill="#00F" points="533.7 1203.116 524.7 1206.716 533.7 1210.316 530.1 1206.716" style="stroke:#00f;stroke-width:.9"/><line style="stroke:#00f;stroke-width:.9;stroke-dasharray:2,2" x1="528.3" x2="1125" y1="1206.716" y2="1206.716"/><text x="539.1" y="1203.29" fill="#000" font-family="sans-serif" font-size="11.7" lengthAdjust="spacingAndGlyphs" textLength="59.4">&lt;cred_def&gt;</text><polygon fill="#A80036" points="790.2 1229.17 799.2 1232.77 790.2 1236.37 793.8 1232.77" style="stroke:#a80036;stroke-width:.9"/><line style="stroke:#a80036;stroke-width:.9" x1="523.8" x2="795.6" y1="1232.77" y2="1232.77"/><text x="530.1" y="1229.344" fill="#000" font-family="sans-serif" font-size="11.7" font-weight="bold" lengthAdjust="spacingAndGlyphs" textLength="201.6">8.indy_prover_create_credential_req</text><line style="stroke:green;stroke-width:.9" x1="801" x2="838.8" y1="1259.677" y2="1259.677"/><line style="stroke:green;stroke-width:.9" x1="838.8" x2="838.8" y1="1259.677" y2="1271.377"/><line style="stroke:green;stroke-width:.9" x1="801.9" x2="838.8" y1="1271.377" y2="1271.377"/><polygon fill="green" points="810.9 1267.777 801.9 1271.377 810.9 1274.977 807.3 1271.377" style="stroke:green;stroke-width:.9"/><text x="807.3" y="1255.398" fill="#000" font-family="sans-serif" font-size="11.7" lengthAdjust="spacingAndGlyphs" textLength="91.8">get master secret</text><polygon fill="#A80036" points="533.7 1292.977 524.7 1296.577 533.7 1300.177 530.1 1296.577" style="stroke:#a80036;stroke-width:.9"/><line style="stroke:#a80036;stroke-width:.9" x1="528.3" x2="800.1" y1="1296.577" y2="1296.577"/><text x="539.1" y="1293.152" fill="#000" font-family="sans-serif" font-size="11.7" lengthAdjust="spacingAndGlyphs" textLength="236.7">&lt;cred_req_json&gt;, &lt;cred_req_metadata_json&gt;</text><polygon fill="#000" points="390.6 1319.031 381.6 1322.631 390.6 1326.231 387 1322.631" style="stroke:#000;stroke-width:.9"/><line style="stroke:#000;stroke-width:.9" x1="385.2" x2="522.9" y1="1322.631" y2="1322.631"/><text x="396" y="1319.206" fill="#000" font-family="sans-serif" font-size="11.7" lengthAdjust="spacingAndGlyphs" textLength="121.5">send credential request</text><line style="stroke:green;stroke-width:.9" x1="95.4" x2="133.2" y1="1349.539" y2="1349.539"/><line style="stroke:green;stroke-width:.9" x1="133.2" x2="133.2" y1="1349.539" y2="1361.239"/><line style="stroke:green;stroke-width:.9" x1="96.3" x2="133.2" y1="1361.239" y2="1361.239"/><polygon fill="green" points="105.3 1357.639 96.3 1361.239 105.3 1364.839 101.7 1361.239" style="stroke:green;stroke-width:.9"/><text x="101.7" y="1345.26" fill="#000" font-family="sans-serif" font-size="11.7" lengthAdjust="spacingAndGlyphs" textLength="45">get keys</text><line style="stroke:green;stroke-width:.9" x1="95.4" x2="133.2" y1="1387.293" y2="1387.293"/><line style="stroke:green;stroke-width:.9" x1="133.2" x2="133.2" y1="1387.293" y2="1398.993"/><line style="stroke:green;stroke-width:.9" x1="96.3" x2="133.2" y1="1398.993" y2="1398.993"/><polygon fill="green" points="105.3 1395.393 96.3 1398.993 105.3 1402.593 101.7 1398.993" style="stroke:green;stroke-width:.9"/><text x="101.7" y="1383.014" fill="#000" font-family="sans-serif" font-size="11.7" lengthAdjust="spacingAndGlyphs" textLength="68.4">get revoc reg</text><polygon fill="#A80036" points="105.3 1420.593 96.3 1424.193 105.3 1427.793 101.7 1424.193" style="stroke:#a80036;stroke-width:.9"/><line style="stroke:#a80036;stroke-width:.9" x1="99.9" x2="379.8" y1="1424.193" y2="1424.193"/><text x="110.7" y="1420.767" fill="#000" font-family="sans-serif" font-size="11.7" font-weight="bold" lengthAdjust="spacingAndGlyphs" textLength="179.1">9. indy_issuer_create_credential</text><polygon fill="#A80036" points="369.9 1460.147 378.9 1463.747 369.9 1467.347 373.5 1463.747" style="stroke:#a80036;stroke-width:.9"/><line style="stroke:#a80036;stroke-width:.9" x1="95.4" x2="375.3" y1="1463.747" y2="1463.747"/><text x="101.7" y="1446.821" fill="#000" font-family="sans-serif" font-size="11.7" lengthAdjust="spacingAndGlyphs" textLength="162.9">&lt;cred_json&gt;, &lt;cred_revoc_id&gt;,</text><text x="101.7" y="1460.275" fill="#000" font-family="sans-serif" font-size="11.7" lengthAdjust="spacingAndGlyphs" textLength="125.1">&lt;revoc_reg_delta_json&gt;</text><polygon fill="#00F" points="1115.1 1486.154 1124.1 1489.754 1115.1 1493.354 1118.7 1489.754" style="stroke:#00f;stroke-width:.9"/><line style="stroke:#00f;stroke-width:.9" x1="380.7" x2="1120.5" y1="1489.754" y2="1489.754"/><text x="387" y="1486.329" fill="#000" font-family="sans-serif" font-size="11.7" lengthAdjust="spacingAndGlyphs" textLength="167.4">send REVOC_REG_ENTRY txn</text><polygon fill="#000" points="513 1512.208 522 1515.808 513 1519.408 516.6 1515.808" style="stroke:#000;stroke-width:.9"/><line style="stroke:#000;stroke-width:.9" x1="380.7" x2="518.4" y1="1515.808" y2="1515.808"/><text x="387" y="1512.383" fill="#000" font-family="sans-serif" font-size="11.7" lengthAdjust="spacingAndGlyphs" textLength="79.2">send credential</text><polygon fill="#00F" points="1115.1 1538.262 1124.1 1541.862 1115.1 1545.462 1118.7 1541.862" style="stroke:#00f;stroke-width:.9"/><line style="stroke:#00f;stroke-width:.9;stroke-dasharray:2,2" x1="523.8" x2="1120.5" y1="1541.862" y2="1541.862"/><text x="530.1" y="1538.437" fill="#000" font-family="sans-serif" font-size="11.7" lengthAdjust="spacingAndGlyphs" textLength="181.8">send GET_REVOC_REG_DEF req</text><polygon fill="#00F" points="533.7 1564.316 524.7 1567.916 533.7 1571.516 530.1 1567.916" style="stroke:#00f;stroke-width:.9"/><line style="stroke:#00f;stroke-width:.9;stroke-dasharray:2,2" x1="528.3" x2="1125" y1="1567.916" y2="1567.916"/><text x="539.1" y="1564.491" fill="#000" font-family="sans-serif" font-size="11.7" lengthAdjust="spacingAndGlyphs" textLength="88.2">&lt;revoc_reg_def&gt;</text><polygon fill="#A80036" points="790.2 1590.37 799.2 1593.97 790.2 1597.57 793.8 1593.97" style="stroke:#a80036;stroke-width:.9"/><line style="stroke:#a80036;stroke-width:.9" x1="523.8" x2="795.6" y1="1593.97" y2="1593.97"/><text x="530.1" y="1590.544" fill="#000" font-family="sans-serif" font-size="11.7" font-weight="bold" lengthAdjust="spacingAndGlyphs" textLength="178.2">10.indy_prover_store_credential</text><line style="stroke:green;stroke-width:.9" x1="801" x2="838.8" y1="1620.878" y2="1620.878"/><line style="stroke:green;stroke-width:.9" x1="838.8" x2="838.8" y1="1620.878" y2="1632.578"/><line style="stroke:green;stroke-width:.9" x1="801.9" x2="838.8" y1="1632.578" y2="1632.578"/><polygon fill="green" points="810.9 1628.978 801.9 1632.578 810.9 1636.178 807.3 1632.578" style="stroke:green;stroke-width:.9"/><text x="807.3" y="1616.598" fill="#000" font-family="sans-serif" font-size="11.7" lengthAdjust="spacingAndGlyphs" textLength="91.8">get master secret</text><line style="stroke:green;stroke-width:.9" x1="801" x2="838.8" y1="1658.631" y2="1658.631"/><line style="stroke:green;stroke-width:.9" x1="838.8" x2="838.8" y1="1658.631" y2="1670.331"/><line style="stroke:green;stroke-width:.9" x1="801.9" x2="838.8" y1="1670.331" y2="1670.331"/><polygon fill="green" points="810.9 1666.731 801.9 1670.331 810.9 1673.931 807.3 1670.331" style="stroke:green;stroke-width:.9"/><text x="807.3" y="1654.352" fill="#000" font-family="sans-serif" font-size="11.7" lengthAdjust="spacingAndGlyphs" textLength="80.1">store credential</text><polygon fill="#A80036" points="533.7 1691.931 524.7 1695.531 533.7 1699.131 530.1 1695.531" style="stroke:#a80036;stroke-width:.9"/><line style="stroke:#a80036;stroke-width:.9" x1="528.3" x2="800.1" y1="1695.531" y2="1695.531"/><text x="539.1" y="1692.106" fill="#000" font-family="sans-serif" font-size="11.7" lengthAdjust="spacingAndGlyphs" textLength="52.2">&lt;cred_id&gt;</text><rect style="stroke:#eee;stroke-width:.9" width="1183.05" height="2.7" x="2.7" y="1724.082" fill="#EEE" filter="url(#fnaxi9x)"/><line style="stroke:#000;stroke-width:.9" x1="2.7" x2="1185.75" y1="1724.082" y2="1724.082"/><line style="stroke:#000;stroke-width:.9" x1="2.7" x2="1185.75" y1="1726.782" y2="1726.782"/><rect style="stroke:#000;stroke-width:1.8" width="180.9" height="24.794" x="503.775" y="1712.585" fill="#EEE" filter="url(#fnaxi9x)"/><text x="509.175" y="1730.536" fill="#000" font-family="sans-serif" font-size="15.3" font-weight="bold" lengthAdjust="spacingAndGlyphs" textLength="168.3">Show Credentials on UI</text><polygon fill="#A80036" points="790.2 1760.779 799.2 1764.379 790.2 1767.979 793.8 1764.379" style="stroke:#a80036;stroke-width:.9"/><line style="stroke:#a80036;stroke-width:.9" x1="523.8" x2="795.6" y1="1764.379" y2="1764.379"/><text x="530.1" y="1760.953" fill="#000" font-family="sans-serif" font-size="11.7" font-weight="bold" lengthAdjust="spacingAndGlyphs" textLength="177.3">11. indy_prover_get_credentials</text><line style="stroke:green;stroke-width:.9" x1="801" x2="838.8" y1="1791.286" y2="1791.286"/><line style="stroke:green;stroke-width:.9" x1="838.8" x2="838.8" y1="1791.286" y2="1802.986"/><line style="stroke:green;stroke-width:.9" x1="801.9" x2="838.8" y1="1802.986" y2="1802.986"/><polygon fill="green" points="810.9 1799.387 801.9 1802.986 810.9 1806.586 807.3 1802.986" style="stroke:green;stroke-width:.9"/><text x="807.3" y="1787.007" fill="#000" font-family="sans-serif" font-size="11.7" lengthAdjust="spacingAndGlyphs" textLength="76.5">get credentials</text><polygon fill="#A80036" points="533.7 1824.586 524.7 1828.187 533.7 1831.786 530.1 1828.187" style="stroke:#a80036;stroke-width:.9"/><line style="stroke:#a80036;stroke-width:.9" x1="528.3" x2="800.1" y1="1828.187" y2="1828.187"/><text x="539.1" y="1824.761" fill="#000" font-family="sans-serif" font-size="11.7" lengthAdjust="spacingAndGlyphs" textLength="71.1">&lt;credentials&gt;</text><line style="stroke:#a80036;stroke-width:.9" x1="523.8" x2="561.6" y1="1855.094" y2="1855.094"/><line style="stroke:#a80036;stroke-width:.9" x1="561.6" x2="561.6" y1="1855.094" y2="1866.794"/><line style="stroke:#a80036;stroke-width:.9" x1="524.7" x2="561.6" y1="1866.794" y2="1866.794"/><polygon fill="#A80036" points="533.7 1863.194 524.7 1866.794 533.7 1870.394 530.1 1866.794" style="stroke:#a80036;stroke-width:.9"/><text x="530.1" y="1850.815" fill="#000" font-family="sans-serif" font-size="11.7" lengthAdjust="spacingAndGlyphs" textLength="58.5">show on UI</text><rect style="stroke:#eee;stroke-width:.9" width="1183.05" height="2.7" x="2.7" y="1894.491" fill="#EEE" filter="url(#fnaxi9x)"/><line style="stroke:#000;stroke-width:.9" x1="2.7" x2="1185.75" y1="1894.491" y2="1894.491"/><line style="stroke:#000;stroke-width:.9" x1="2.7" x2="1185.75" y1="1897.191" y2="1897.191"/><rect style="stroke:#000;stroke-width:1.8" width="341.1" height="24.794" x="423.675" y="1882.994" fill="#EEE" filter="url(#fnaxi9x)"/><text x="429.075" y="1900.946" fill="#000" font-family="sans-serif" font-size="15.3" font-weight="bold" lengthAdjust="spacingAndGlyphs" textLength="328.5">Present Credential to 3d Party (proof request)</text><polygon fill="#000" points="533.7 1931.188 524.7 1934.788 533.7 1938.388 530.1 1934.788" style="stroke:#000;stroke-width:.9"/><line style="stroke:#000;stroke-width:.9" x1="528.3" x2="921.6" y1="1934.788" y2="1934.788"/><text x="539.1" y="1931.362" fill="#000" font-family="sans-serif" font-size="11.7" lengthAdjust="spacingAndGlyphs" textLength="97.2">send proof request</text><polygon fill="#A80036" points="790.2 1979.742 799.2 1983.342 790.2 1986.942 793.8 1983.342" style="stroke:#a80036;stroke-width:.9"/><line style="stroke:#a80036;stroke-width:.9" x1="523.8" x2="795.6" y1="1983.342" y2="1983.342"/><text x="530.1" y="1979.916" fill="#000" font-family="sans-serif" font-size="11.7" font-weight="bold" lengthAdjust="spacingAndGlyphs" textLength="255.6">12.indy_prover_get_credentials_for_proof_req</text><polygon fill="#A80036" points="533.7 2005.795 524.7 2009.396 533.7 2012.995 530.1 2009.396" style="stroke:#a80036;stroke-width:.9"/><line style="stroke:#a80036;stroke-width:.9" x1="528.3" x2="800.1" y1="2009.396" y2="2009.396"/><text x="539.1" y="2005.97" fill="#000" font-family="sans-serif" font-size="11.7" lengthAdjust="spacingAndGlyphs" textLength="160.2">&lt;credentials for proof request&gt;</text><line style="stroke:#a80036;stroke-width:.9" x1="523.8" x2="561.6" y1="2036.303" y2="2036.303"/><line style="stroke:#a80036;stroke-width:.9" x1="561.6" x2="561.6" y1="2036.303" y2="2048.003"/><line style="stroke:#a80036;stroke-width:.9" x1="524.7" x2="561.6" y1="2048.003" y2="2048.003"/><polygon fill="#A80036" points="533.7 2044.403 524.7 2048.003 533.7 2051.603 530.1 2048.003" style="stroke:#a80036;stroke-width:.9"/><text x="530.1" y="2032.024" fill="#000" font-family="sans-serif" font-size="11.7" lengthAdjust="spacingAndGlyphs" textLength="58.5">show on UI</text><line style="stroke:#a80036;stroke-width:.9" x1="523.8" x2="561.6" y1="2074.057" y2="2074.057"/><line style="stroke:#a80036;stroke-width:.9" x1="561.6" x2="561.6" y1="2074.057" y2="2085.757"/><line style="stroke:#a80036;stroke-width:.9" x1="524.7" x2="561.6" y1="2085.757" y2="2085.757"/><polygon fill="#A80036" points="533.7 2082.157 524.7 2085.757 533.7 2089.357 530.1 2085.757" style="stroke:#a80036;stroke-width:.9"/><text x="530.1" y="2069.778" fill="#000" font-family="sans-serif" font-size="11.7" lengthAdjust="spacingAndGlyphs" textLength="158.4">select credentials for the proof</text><polygon fill="#00F" points="1115.1 2129.857 1124.1 2133.457 1115.1 2137.057 1118.7 2133.457" style="stroke:#00f;stroke-width:.9"/><line style="stroke:#00f;stroke-width:.9;stroke-dasharray:2,2" x1="523.8" x2="1120.5" y1="2133.457" y2="2133.457"/><text x="530.1" y="2130.032" fill="#000" font-family="sans-serif" font-size="11.7" lengthAdjust="spacingAndGlyphs" textLength="181.8">send GET_REVOC_REG_DEF req</text><polygon fill="#00F" points="533.7 2155.911 524.7 2159.511 533.7 2163.111 530.1 2159.511" style="stroke:#00f;stroke-width:.9"/><line style="stroke:#00f;stroke-width:.9;stroke-dasharray:2,2" x1="528.3" x2="1125" y1="2159.511" y2="2159.511"/><text x="539.1" y="2156.085" fill="#000" font-family="sans-serif" font-size="11.7" lengthAdjust="spacingAndGlyphs" textLength="88.2">&lt;revoc_reg_def&gt;</text><polygon fill="#00F" points="1115.1 2181.965 1124.1 2185.565 1115.1 2189.165 1118.7 2185.565" style="stroke:#00f;stroke-width:.9"/><line style="stroke:#00f;stroke-width:.9;stroke-dasharray:2,2" x1="523.8" x2="1120.5" y1="2185.565" y2="2185.565"/><text x="530.1" y="2182.139" fill="#000" font-family="sans-serif" font-size="11.7" lengthAdjust="spacingAndGlyphs" textLength="196.2">send GET_REVOC_REG_DELTA req</text><polygon fill="#00F" points="533.7 2208.019 524.7 2211.619 533.7 2215.219 530.1 2211.619" style="stroke:#00f;stroke-width:.9"/><line style="stroke:#00f;stroke-width:.9;stroke-dasharray:2,2" x1="528.3" x2="1125" y1="2211.619" y2="2211.619"/><text x="539.1" y="2208.193" fill="#000" font-family="sans-serif" font-size="11.7" lengthAdjust="spacingAndGlyphs" textLength="97.2">&lt;revoc_reg_delta&gt;</text><polygon fill="#A80036" points="790.2 2256.573 799.2 2260.173 790.2 2263.773 793.8 2260.173" style="stroke:#a80036;stroke-width:.9"/><line style="stroke:#a80036;stroke-width:.9" x1="523.8" x2="795.6" y1="2260.173" y2="2260.173"/><text x="530.1" y="2256.747" fill="#000" font-family="sans-serif" font-size="11.7" font-weight="bold" lengthAdjust="spacingAndGlyphs" textLength="177.3">13.indy_create_revocation_state</text><polygon fill="#A80036" points="533.7 2282.626 524.7 2286.226 533.7 2289.826 530.1 2286.226" style="stroke:#a80036;stroke-width:.9"/><line style="stroke:#a80036;stroke-width:.9" x1="528.3" x2="800.1" y1="2286.226" y2="2286.226"/><text x="539.1" y="2282.801" fill="#000" font-family="sans-serif" font-size="11.7" lengthAdjust="spacingAndGlyphs" textLength="72.9">&lt;revoc state&gt;</text><polygon fill="#00F" points="1115.1 2331.18 1124.1 2334.78 1115.1 2338.38 1118.7 2334.78" style="stroke:#00f;stroke-width:.9"/><line style="stroke:#00f;stroke-width:.9;stroke-dasharray:2,2" x1="523.8" x2="1120.5" y1="2334.78" y2="2334.78"/><text x="530.1" y="2331.355" fill="#000" font-family="sans-serif" font-size="11.7" lengthAdjust="spacingAndGlyphs" textLength="129.6">send GET_SCHEMA req</text><polygon fill="#00F" points="533.7 2357.234 524.7 2360.834 533.7 2364.434 530.1 2360.834" style="stroke:#00f;stroke-width:.9"/><line style="stroke:#00f;stroke-width:.9;stroke-dasharray:2,2" x1="528.3" x2="1125" y1="2360.834" y2="2360.834"/><text x="539.1" y="2357.409" fill="#000" font-family="sans-serif" font-size="11.7" lengthAdjust="spacingAndGlyphs" textLength="55.8">&lt;schema&gt;</text><polygon fill="#00F" points="1115.1 2383.288 1124.1 2386.888 1115.1 2390.488 1118.7 2386.888" style="stroke:#00f;stroke-width:.9"/><line style="stroke:#00f;stroke-width:.9;stroke-dasharray:2,2" x1="523.8" x2="1120.5" y1="2386.888" y2="2386.888"/><text x="530.1" y="2383.462" fill="#000" font-family="sans-serif" font-size="11.7" lengthAdjust="spacingAndGlyphs" textLength="141.3">send GET_CRED_DEF req</text><polygon fill="#00F" points="533.7 2409.342 524.7 2412.942 533.7 2416.542 530.1 2412.942" style="stroke:#00f;stroke-width:.9"/><line style="stroke:#00f;stroke-width:.9;stroke-dasharray:2,2" x1="528.3" x2="1125" y1="2412.942" y2="2412.942"/><text x="539.1" y="2409.516" fill="#000" font-family="sans-serif" font-size="11.7" lengthAdjust="spacingAndGlyphs" textLength="59.4">&lt;cred_def&gt;</text><polygon fill="#A80036" points="790.2 2457.896 799.2 2461.496 790.2 2465.096 793.8 2461.496" style="stroke:#a80036;stroke-width:.9"/><line style="stroke:#a80036;stroke-width:.9" x1="523.8" x2="795.6" y1="2461.496" y2="2461.496"/><text x="530.1" y="2458.07" fill="#000" font-family="sans-serif" font-size="11.7" font-weight="bold" lengthAdjust="spacingAndGlyphs" textLength="158.4">14.indy_prover_create_proof</text><line style="stroke:green;stroke-width:.9" x1="801" x2="838.8" y1="2488.403" y2="2488.403"/><line style="stroke:green;stroke-width:.9" x1="838.8" x2="838.8" y1="2488.403" y2="2500.103"/><line style="stroke:green;stroke-width:.9" x1="801.9" x2="838.8" y1="2500.103" y2="2500.103"/><polygon fill="green" points="810.9 2496.503 801.9 2500.103 810.9 2503.703 807.3 2500.103" style="stroke:green;stroke-width:.9"/><text x="807.3" y="2484.124" fill="#000" font-family="sans-serif" font-size="11.7" lengthAdjust="spacingAndGlyphs" textLength="70.2">get credential</text><polygon fill="#A80036" points="533.7 2521.703 524.7 2525.303 533.7 2528.903 530.1 2525.303" style="stroke:#a80036;stroke-width:.9"/><line style="stroke:#a80036;stroke-width:.9" x1="528.3" x2="800.1" y1="2525.303" y2="2525.303"/><text x="539.1" y="2521.878" fill="#000" font-family="sans-serif" font-size="11.7" lengthAdjust="spacingAndGlyphs" textLength="40.5">&lt;proof&gt;</text><polygon fill="#000" points="911.7 2570.257 920.7 2573.857 911.7 2577.457 915.3 2573.857" style="stroke:#000;stroke-width:.9"/><line style="stroke:#000;stroke-width:.9" x1="523.8" x2="917.1" y1="2573.857" y2="2573.857"/><text x="530.1" y="2570.432" fill="#000" font-family="sans-serif" font-size="11.7" lengthAdjust="spacingAndGlyphs" textLength="54.9">send proof</text><polygon fill="#00F" points="1115.1 2618.811 1124.1 2622.411 1115.1 2626.011 1118.7 2622.411" style="stroke:#00f;stroke-width:.9"/><line style="stroke:#00f;stroke-width:.9;stroke-dasharray:2,2" x1="922.5" x2="1120.5" y1="2622.411" y2="2622.411"/><text x="928.8" y="2618.985" fill="#000" font-family="sans-serif" font-size="11.7" lengthAdjust="spacingAndGlyphs" textLength="129.6">send GET_SCHEMA req</text><polygon fill="#00F" points="932.4 2644.865 923.4 2648.465 932.4 2652.065 928.8 2648.465" style="stroke:#00f;stroke-width:.9"/><line style="stroke:#00f;stroke-width:.9;stroke-dasharray:2,2" x1="927" x2="1125" y1="2648.465" y2="2648.465"/><text x="937.8" y="2645.039" fill="#000" font-family="sans-serif" font-size="11.7" lengthAdjust="spacingAndGlyphs" textLength="55.8">&lt;schema&gt;</text><polygon fill="#00F" points="1115.1 2670.919 1124.1 2674.519 1115.1 2678.119 1118.7 2674.519" style="stroke:#00f;stroke-width:.9"/><line style="stroke:#00f;stroke-width:.9;stroke-dasharray:2,2" x1="922.5" x2="1120.5" y1="2674.519" y2="2674.519"/><text x="928.8" y="2671.093" fill="#000" font-family="sans-serif" font-size="11.7" lengthAdjust="spacingAndGlyphs" textLength="141.3">send GET_CRED_DEF req</text><polygon fill="#00F" points="932.4 2696.973 923.4 2700.573 932.4 2704.173 928.8 2700.573" style="stroke:#00f;stroke-width:.9"/><line style="stroke:#00f;stroke-width:.9;stroke-dasharray:2,2" x1="927" x2="1125" y1="2700.573" y2="2700.573"/><text x="937.8" y="2697.147" fill="#000" font-family="sans-serif" font-size="11.7" lengthAdjust="spacingAndGlyphs" textLength="59.4">&lt;cred_def&gt;</text><polygon fill="#00F" points="1115.1 2723.026 1124.1 2726.626 1115.1 2730.227 1118.7 2726.626" style="stroke:#00f;stroke-width:.9"/><line style="stroke:#00f;stroke-width:.9;stroke-dasharray:2,2" x1="922.5" x2="1120.5" y1="2726.626" y2="2726.626"/><text x="928.8" y="2723.201" fill="#000" font-family="sans-serif" font-size="11.7" lengthAdjust="spacingAndGlyphs" textLength="181.8">send GET_REVOC_REG_DEF req</text><polygon fill="#00F" points="932.4 2749.08 923.4 2752.68 932.4 2756.28 928.8 2752.68" style="stroke:#00f;stroke-width:.9"/><line style="stroke:#00f;stroke-width:.9;stroke-dasharray:2,2" x1="927" x2="1125" y1="2752.68" y2="2752.68"/><text x="937.8" y="2749.255" fill="#000" font-family="sans-serif" font-size="11.7" lengthAdjust="spacingAndGlyphs" textLength="88.2">&lt;revoc_reg_def&gt;</text><polygon fill="#00F" points="1115.1 2775.134 1124.1 2778.734 1115.1 2782.334 1118.7 2778.734" style="stroke:#00f;stroke-width:.9"/><line style="stroke:#00f;stroke-width:.9;stroke-dasharray:2,2" x1="922.5" x2="1120.5" y1="2778.734" y2="2778.734"/><text x="928.8" y="2775.309" fill="#000" font-family="sans-serif" font-size="11.7" lengthAdjust="spacingAndGlyphs" textLength="152.1">send GET_REVOC_REG req</text><polygon fill="#00F" points="932.4 2801.188 923.4 2804.788 932.4 2808.388 928.8 2804.788" style="stroke:#00f;stroke-width:.9"/><line style="stroke:#00f;stroke-width:.9;stroke-dasharray:2,2" x1="927" x2="1125" y1="2804.788" y2="2804.788"/><text x="937.8" y="2801.363" fill="#000" font-family="sans-serif" font-size="11.7" lengthAdjust="spacingAndGlyphs" textLength="65.7">&lt;revoc_reg&gt;</text><line style="stroke:#a80036;stroke-width:.9" x1="922.5" x2="960.3" y1="2854.196" y2="2854.196"/><line style="stroke:#a80036;stroke-width:.9" x1="960.3" x2="960.3" y1="2854.196" y2="2865.896"/><line style="stroke:#a80036;stroke-width:.9" x1="923.4" x2="960.3" y1="2865.896" y2="2865.896"/><polygon fill="#A80036" points="932.4 2862.296 923.4 2865.896 932.4 2869.496 928.8 2865.896" style="stroke:#a80036;stroke-width:.9"/><text x="928.8" y="2849.916" fill="#000" font-family="sans-serif" font-size="11.7" font-weight="bold" lengthAdjust="spacingAndGlyphs" textLength="162">14. indy_verifier_verify_proof</text><rect style="stroke:#eee;stroke-width:.9" width="1183.05" height="2.7" x="2.7" y="2893.593" fill="#EEE" filter="url(#fnaxi9x)"/><line style="stroke:#000;stroke-width:.9" x1="2.7" x2="1185.75" y1="2893.593" y2="2893.593"/><line style="stroke:#000;stroke-width:.9" x1="2.7" x2="1185.75" y1="2896.293" y2="2896.293"/><rect style="stroke:#000;stroke-width:1.8" width="151.2" height="24.794" x="518.625" y="2882.096" fill="#EEE" filter="url(#fnaxi9x)"/><text x="524.025" y="2900.047" fill="#000" font-family="sans-serif" font-size="15.3" font-weight="bold" lengthAdjust="spacingAndGlyphs" textLength="138.6">Revoke Credentials</text><polygon fill="#A80036" points="105.3 2930.289 96.3 2933.889 105.3 2937.489 101.7 2933.889" style="stroke:#a80036;stroke-width:.9"/><line style="stroke:#a80036;stroke-width:.9" x1="99.9" x2="379.8" y1="2933.889" y2="2933.889"/><text x="110.7" y="2930.464" fill="#000" font-family="sans-serif" font-size="11.7" font-weight="bold" lengthAdjust="spacingAndGlyphs" textLength="189">15. indy_issuer_revoke_credential</text><line style="stroke:green;stroke-width:.9" x1="95.4" x2="133.2" y1="2960.797" y2="2960.797"/><line style="stroke:green;stroke-width:.9" x1="133.2" x2="133.2" y1="2960.797" y2="2972.497"/><line style="stroke:green;stroke-width:.9" x1="96.3" x2="133.2" y1="2972.497" y2="2972.497"/><polygon fill="green" points="105.3 2968.897 96.3 2972.497 105.3 2976.097 101.7 2972.497" style="stroke:green;stroke-width:.9"/><text x="101.7" y="2956.518" fill="#000" font-family="sans-serif" font-size="11.7" lengthAdjust="spacingAndGlyphs" textLength="45">get keys</text><line style="stroke:green;stroke-width:.9" x1="95.4" x2="133.2" y1="2998.551" y2="2998.551"/><line style="stroke:green;stroke-width:.9" x1="133.2" x2="133.2" y1="2998.551" y2="3010.251"/><line style="stroke:green;stroke-width:.9" x1="96.3" x2="133.2" y1="3010.251" y2="3010.251"/><polygon fill="green" points="105.3 3006.651 96.3 3010.251 105.3 3013.851 101.7 3010.251" style="stroke:green;stroke-width:.9"/><text x="101.7" y="2994.271" fill="#000" font-family="sans-serif" font-size="11.7" lengthAdjust="spacingAndGlyphs" textLength="68.4">get revoc reg</text><polygon fill="#A80036" points="369.9 3031.851 378.9 3035.451 369.9 3039.051 373.5 3035.451" style="stroke:#a80036;stroke-width:.9"/><line style="stroke:#a80036;stroke-width:.9" x1="95.4" x2="375.3" y1="3035.451" y2="3035.451"/><text x="101.7" y="3032.025" fill="#000" font-family="sans-serif" font-size="11.7" lengthAdjust="spacingAndGlyphs" textLength="91.8">&lt;revoc reg delta&gt;</text><polygon fill="#00F" points="1115.1 3057.905 1124.1 3061.505 1115.1 3065.105 1118.7 3061.505" style="stroke:#00f;stroke-width:.9"/><line style="stroke:#00f;stroke-width:.9" x1="380.7" x2="1120.5" y1="3061.505" y2="3061.505"/><text x="387" y="3058.079" fill="#000" font-family="sans-serif" font-size="11.7" lengthAdjust="spacingAndGlyphs" textLength="167.4">send REVOC_REG_ENTRY txn</text></g></svg>