<svg xmlns="http://www.w3.org/2000/svg" xmlns:xlink="http://www.w3.org/1999/xlink" width="1577" height="588" contentScriptType="application/ecmascript" contentStyleType="text/css" style="width:1577px;height:588px" preserveAspectRatio="none" version="1.1" viewBox="0 0 1577 588" zoomAndPan="magnify"><defs><filter id="fdkj1cdnbt9g9" width="300%" height="300%" x="-1" y="-1"><feGaussianBlur result="blurOut" stdDeviation="2"/><feColorMatrix in="blurOut" result="blurOut2" type="matrix" values="0 0 0 0 0 0 0 0 0 0 0 0 0 0 0 0 0 0 .4 0"/><feOffset dx="4" dy="4" in="blurOut2" result="blurOut3"/><feBlend in="SourceGraphic" in2="blurOut3" mode="normal"/></filter></defs><g><polygon fill="#FFF" points="14 195 232 195 239 217.297 1004 217.297 1004 266 14 266 14 195" filter="url(#fdkj1cdnbt9g9)" style="stroke:#000;stroke-width:1.5"/><line style="stroke:#000;stroke-width:1.5" x1="14" x2="239" y1="217.297" y2="217.297"/><text x="18" y="209.995" fill="#000" font-family="sans-serif" font-size="14" font-weight="bold" lengthAdjust="spacingAndGlyphs" textLength="212">Libindy language bindings</text><polygon fill="#FFF" points="1012 200 1022 190 1255 190 1255 256 1245 266 1012 266 1012 200" filter="url(#fdkj1cdnbt9g9)" style="stroke:#000;stroke-width:1.5"/><line style="stroke:#000;stroke-width:1.5" x1="1245" x2="1254" y1="200" y2="191"/><line style="stroke:#000;stroke-width:1.5" x1="1012" x2="1245" y1="200" y2="200"/><line style="stroke:#000;stroke-width:1.5" x1="1245" x2="1245" y1="200" y2="266"/><text x="1046" y="215.995" fill="#000" font-family="sans-serif" font-size="14" font-weight="bold" lengthAdjust="spacingAndGlyphs" textLength="167">Pluggable payments</text><polygon fill="#FFF" points="1263 200 1273 190 1555 190 1555 256 1545 266 1263 266 1263 200" filter="url(#fdkj1cdnbt9g9)" style="stroke:#000;stroke-width:1.5"/><line style="stroke:#000;stroke-width:1.5" x1="1545" x2="1554" y1="200" y2="191"/><line style="stroke:#000;stroke-width:1.5" x1="1263" x2="1545" y1="200" y2="200"/><line style="stroke:#000;stroke-width:1.5" x1="1545" x2="1545" y1="200" y2="266"/><text x="1297" y="215.995" fill="#000" font-family="sans-serif" font-size="14" font-weight="bold" lengthAdjust="spacingAndGlyphs" textLength="216">Pluggable wallet storages</text><polygon fill="#FFF" points="360 505 576 505 583 527.297 1053 527.297 1053 576 360 576 360 505" filter="url(#fdkj1cdnbt9g9)" style="stroke:#000;stroke-width:1.5"/><line style="stroke:#000;stroke-width:1.5" x1="360" x2="583" y1="527.297" y2="527.297"/><text x="364" y="519.995" fill="#000" font-family="sans-serif" font-size="14" font-weight="bold" lengthAdjust="spacingAndGlyphs" textLength="210">LibVCX language bindings</text><rect style="stroke:#a80036;stroke-width:1.5" width="110" height="36.297" x="886" y="222" fill="#FEFECE" filter="url(#fdkj1cdnbt9g9)"/><rect style="stroke:#a80036;stroke-width:1.5" width="10" height="5" x="881" y="227" fill="#FEFECE"/><rect style="stroke:#a80036;stroke-width:1.5" width="10" height="5" x="881" y="248.297" fill="#FEFECE"/><text x="896" y="244.995" fill="#000" font-family="sans-serif" font-size="14" lengthAdjust="spacingAndGlyphs" textLength="90">Java Wrapper</text><rect style="stroke:#a80036;stroke-width:1.5" width="132" height="36.297" x="719" y="222" fill="#FEFECE" filter="url(#fdkj1cdnbt9g9)"/><rect style="stroke:#a80036;stroke-width:1.5" width="10" height="5" x="714" y="227" fill="#FEFECE"/><rect style="stroke:#a80036;stroke-width:1.5" width="10" height="5" x="714" y="248.297" fill="#FEFECE"/><text x="729" y="244.995" fill="#000" font-family="sans-serif" font-size="14" lengthAdjust="spacingAndGlyphs" textLength="112">NodeJS Wrapper</text><rect style="stroke:#a80036;stroke-width:1.5" width="115" height="36.297" x="568.5" y="222" fill="#FEFECE" filter="url(#fdkj1cdnbt9g9)"/><rect style="stroke:#a80036;stroke-width:1.5" width="10" height="5" x="563.5" y="227" fill="#FEFECE"/><rect style="stroke:#a80036;stroke-width:1.5" width="10" height="5" x="563.5" y="248.297" fill="#FEFECE"/><text x="578.5" y="244.995" fill="#000" font-family="sans-serif" font-size="14" lengthAdjust="spacingAndGlyphs" textLength="95">Rust Wrapper</text><rect style="stroke:#a80036;stroke-width:1.5" width="131" height="36.297" x="402.5" y="222" fill="#FEFECE" filter="url(#fdkj1cdnbt9g9)"/><rect style="stroke:#a80036;stroke-width:1.5" width="10" height="5" x="397.5" y="227" fill="#FEFECE"/><rect style="stroke:#a80036;stroke-width:1.5" width="10" height="5" x="397.5" y="248.297" fill="#FEFECE"/><text x="412.5" y="244.995" fill="#000" font-family="sans-serif" font-size="14" lengthAdjust="spacingAndGlyphs" textLength="111">Python Wrapper</text><rect style="stroke:#a80036;stroke-width:1.5" width="197" height="36.297" x="170.5" y="222" fill="#FEFECE" filter="url(#fdkj1cdnbt9g9)"/><rect style="stroke:#a80036;stroke-width:1.5" width="10" height="5" x="165.5" y="227" fill="#FEFECE"/><rect style="stroke:#a80036;stroke-width:1.5" width="10" height="5" x="165.5" y="248.297" fill="#FEFECE"/><text x="180.5" y="244.995" fill="#000" font-family="sans-serif" font-size="14" lengthAdjust="spacingAndGlyphs" textLength="177">ObjectiveC Wrapper (iOS)</text><rect style="stroke:#a80036;stroke-width:1.5" width="113" height="36.297" x="22.5" y="222" fill="#FEFECE" filter="url(#fdkj1cdnbt9g9)"/><rect style="stroke:#a80036;stroke-width:1.5" width="10" height="5" x="17.5" y="227" fill="#FEFECE"/><rect style="stroke:#a80036;stroke-width:1.5" width="10" height="5" x="17.5" y="248.297" fill="#FEFECE"/><text x="32.5" y="244.995" fill="#000" font-family="sans-serif" font-size="14" lengthAdjust="spacingAndGlyphs" textLength="93">.Net Wrapper</text><rect style="stroke:#a80036;stroke-width:1.5" width="82" height="36.297" x="1031" y="222" fill="#FEFECE" filter="url(#fdkj1cdnbt9g9)"/><rect style="stroke:#a80036;stroke-width:1.5" width="10" height="5" x="1026" y="227" fill="#FEFECE"/><rect style="stroke:#a80036;stroke-width:1.5" width="10" height="5" x="1026" y="248.297" fill="#FEFECE"/><text x="1041" y="244.995" fill="#000" font-family="sans-serif" font-size="14" lengthAdjust="spacingAndGlyphs" textLength="62">libnullpay</text><rect style="stroke:#a80036;stroke-width:1.5" width="83" height="36.297" x="1271.5" y="222" fill="#FEFECE" filter="url(#fdkj1cdnbt9g9)"/><rect style="stroke:#a80036;stroke-width:1.5" width="10" height="5" x="1266.5" y="227" fill="#FEFECE"/><rect style="stroke:#a80036;stroke-width:1.5" width="10" height="5" x="1266.5" y="248.297" fill="#FEFECE"/><text x="1281.5" y="244.995" fill="#000" font-family="sans-serif" font-size="14" lengthAdjust="spacingAndGlyphs" textLength="63">Postgres</text><rect style="stroke:#a80036;stroke-width:1.5" width="197" height="36.297" x="847.5" y="532" fill="#FEFECE" filter="url(#fdkj1cdnbt9g9)"/><rect style="stroke:#a80036;stroke-width:1.5" width="10" height="5" x="842.5" y="537" fill="#FEFECE"/><rect style="stroke:#a80036;stroke-width:1.5" width="10" height="5" x="842.5" y="558.297" fill="#FEFECE"/><text x="857.5" y="554.995" fill="#000" font-family="sans-serif" font-size="14" lengthAdjust="spacingAndGlyphs" textLength="177">ObjectiveC Wrapper (iOS)</text><rect style="stroke:#a80036;stroke-width:1.5" width="110" height="36.297" x="702" y="532" fill="#FEFECE" filter="url(#fdkj1cdnbt9g9)"/><rect style="stroke:#a80036;stroke-width:1.5" width="10" height="5" x="697" y="537" fill="#FEFECE"/><rect style="stroke:#a80036;stroke-width:1.5" width="10" height="5" x="697" y="558.297" fill="#FEFECE"/><text x="712" y="554.995" fill="#000" font-family="sans-serif" font-size="14" lengthAdjust="spacingAndGlyphs" textLength="90">Java Wrapper</text><rect style="stroke:#a80036;stroke-width:1.5" width="132" height="36.297" x="535" y="532" fill="#FEFECE" filter="url(#fdkj1cdnbt9g9)"/><rect style="stroke:#a80036;stroke-width:1.5" width="10" height="5" x="530" y="537" fill="#FEFECE"/><rect style="stroke:#a80036;stroke-width:1.5" width="10" height="5" x="530" y="558.297" fill="#FEFECE"/><text x="545" y="554.995" fill="#000" font-family="sans-serif" font-size="14" lengthAdjust="spacingAndGlyphs" textLength="112">NodeJS Wrapper</text><rect style="stroke:#a80036;stroke-width:1.5" width="131" height="36.297" x="368.5" y="532" fill="#FEFECE" filter="url(#fdkj1cdnbt9g9)"/><rect style="stroke:#a80036;stroke-width:1.5" width="10" height="5" x="363.5" y="537" fill="#FEFECE"/><rect style="stroke:#a80036;stroke-width:1.5" width="10" height="5" x="363.5" y="558.297" fill="#FEFECE"/><text x="378.5" y="554.995" fill="#000" font-family="sans-serif" font-size="14" lengthAdjust="spacingAndGlyphs" textLength="111">Python Wrapper</text><ellipse cx="705" cy="133" fill="#FEFECE" filter="url(#fdkj1cdnbt9g9)" rx="8" ry="8" style="stroke:#a80036;stroke-width:2"/><text x="666.5" y="162.995" fill="#000" font-family="sans-serif" font-size="14" lengthAdjust="spacingAndGlyphs" textLength="77">C Interface</text><rect style="stroke:#a80036;stroke-width:1.5" width="63" height="36.297" x="673.5" y="8" fill="#FEFECE" filter="url(#fdkj1cdnbt9g9)"/><rect style="stroke:#a80036;stroke-width:1.5" width="10" height="5" x="668.5" y="13" fill="#FEFECE"/><rect style="stroke:#a80036;stroke-width:1.5" width="10" height="5" x="668.5" y="34.297" fill="#FEFECE"/><text x="683.5" y="30.995" fill="#000" font-family="sans-serif" font-size="14" lengthAdjust="spacingAndGlyphs" textLength="43">libindy</text><rect style="stroke:#a80036;stroke-width:1.5" width="72" height="36.297" x="537" y="318" fill="#FEFECE" filter="url(#fdkj1cdnbt9g9)"/><rect style="stroke:#a80036;stroke-width:1.5" width="10" height="5" x="532" y="323" fill="#FEFECE"/><rect style="stroke:#a80036;stroke-width:1.5" width="10" height="5" x="532" y="344.297" fill="#FEFECE"/><text x="547" y="340.995" fill="#000" font-family="sans-serif" font-size="14" lengthAdjust="spacingAndGlyphs" textLength="52">Indy CLI</text><rect style="stroke:#a80036;stroke-width:1.5" width="69" height="36.297" x="644.5" y="318" fill="#FEFECE" filter="url(#fdkj1cdnbt9g9)"/><rect style="stroke:#a80036;stroke-width:1.5" width="10" height="5" x="639.5" y="323" fill="#FEFECE"/><rect style="stroke:#a80036;stroke-width:1.5" width="10" height="5" x="639.5" y="344.297" fill="#FEFECE"/><text x="654.5" y="340.995" fill="#000" font-family="sans-serif" font-size="14" lengthAdjust="spacingAndGlyphs" textLength="49">LibVCX</text><ellipse cx="679" cy="443" fill="#FEFECE" filter="url(#fdkj1cdnbt9g9)" rx="8" ry="8" style="stroke:#a80036;stroke-width:2"/><text x="614" y="472.995" fill="#000" font-family="sans-serif" font-size="14" lengthAdjust="spacingAndGlyphs" textLength="130">C Interface LibVCX</text><path id="libindy-cinterface" fill="none" d="M705,44.1511 C705,67.2853 705,106.3808 705,123.9608" style="stroke:#a80036;stroke-width:1"/><path id="cinterface-java_wrapper" fill="none" d="M719.2099,136.5314 C748.315,144.0638 816.3963,163.2299 869,190 C886.4965,198.904 904.6422,211.5305 918.34,221.867" style="stroke:#a80036;stroke-width:1;stroke-dasharray:7,7"/><polygon fill="#A80036" points="714.241 135.261 721.97 141.366 719.086 136.5 723.952 133.615 714.241 135.261" style="stroke:#a80036;stroke-width:1"/><path id="cinterface-nodejs_wrapper" fill="none" d="M714.8211,146.1357 C729.0014,165.1019 755.2667,200.2317 771.3327,221.72" style="stroke:#a80036;stroke-width:1;stroke-dasharray:7,7"/><polygon fill="#A80036" points="711.821 142.123 714.006 151.726 714.815 146.127 720.414 146.936 711.821 142.123" style="stroke:#a80036;stroke-width:1"/><path id="cinterface-rust_wrapper" fill="none" d="M694.9461,146.6173 C680.8634,165.6913 655.2284,200.4122 639.4964,221.72" style="stroke:#a80036;stroke-width:1;stroke-dasharray:7,7"/><polygon fill="#A80036" points="698.264 142.123 689.701 146.987 695.295 146.145 696.137 151.739 698.264 142.123" style="stroke:#a80036;stroke-width:1"/><path id="cinterface-python_wrapper" fill="none" d="M690.6732,137.3072 C663.015,145.8375 600.616,166.1341 551,190 C531.7471,199.2609 511.1696,211.6387 495.3201,221.7616" style="stroke:#a80036;stroke-width:1;stroke-dasharray:7,7"/><polygon fill="#A80036" points="695.727 135.761 685.951 134.569 690.946 137.224 688.292 142.219 695.727 135.761" style="stroke:#a80036;stroke-width:1"/><path id="cinterface-objc_wrapper" fill="none" d="M690.9014,134.3383 C645.6489,138.8804 500.2984,155.3895 385,190 C357.3796,198.2911 327.5272,211.2574 305.0238,221.9081" style="stroke:#a80036;stroke-width:1;stroke-dasharray:7,7"/><polygon fill="#A80036" points="695.915 133.843 686.566 130.747 690.939 134.335 687.352 138.708 695.915 133.843" style="stroke:#a80036;stroke-width:1"/><path id="cinterface-dnet_wrapper" fill="none" d="M690.3979,133.5479 C613.6179,136.573 256.253,152.4787 153,190 C133.327,197.149 113.8241,210.6626 99.7828,221.8401" style="stroke:#a80036;stroke-width:1;stroke-dasharray:7,7"/><polygon fill="#A80036" points="695.818 133.338 686.669 129.69 690.822 133.532 686.98 137.684 695.818 133.338" style="stroke:#a80036;stroke-width:1"/><path id="cinterface-payments" fill="none" d="M719.2762,134.0208 C754.5067,136.5983 849.2743,143.8825 939.3159,153.8776 C984.3367,158.8752 1028.1761,164.5505 1062.801,170.654 C1080.1135,173.7058 1095.1224,176.8646 1106.8236,180.0994 C1112.6742,181.7167 1117.6979,183.3531 1121.7691,185.0045 C1123.8047,185.8302 1125.6023,186.6596 1127.146,187.4924 C1127.9178,187.9088 1128.6262,188.326 1129.2692,188.7439 C1129.5907,188.9529 1129.8959,189.1621 1130.1844,189.3714 C1130.3287,189.4761 1130.4688,189.5808 1130.6047,189.6856" style="stroke:#a80036;stroke-width:1;stroke-dasharray:7,7"/><polygon fill="#A80036" points="714.263 133.656 722.95 138.298 719.25 134.019 723.529 130.319 714.263 133.656" style="stroke:#a80036;stroke-width:1"/><path id="cinterface-wallets" fill="none" d="M719.3217,133.3086 C765.3802,134.3604 915.1517,138.2366 1060.1075,146.9981 C1132.5854,151.3789 1203.8595,156.981 1260.3636,164.0621 C1288.6156,167.6027 1313.1752,171.513 1332.3465,175.8252 C1341.9322,177.9813 1350.1708,180.2379 1356.8503,182.5991 C1360.1901,183.7796 1363.1402,184.9863 1365.6739,186.2196 C1366.9408,186.8363 1368.1036,187.4596 1369.1591,188.0897 C1369.6868,188.4047 1370.1877,188.7214 1370.6613,189.0398 C1370.8981,189.199 1371.1281,189.3586 1371.3513,189.5186" style="stroke:#a80036;stroke-width:1;stroke-dasharray:7,7"/><polygon fill="#A80036" points="714.089 133.191 722.997 137.392 719.088 133.303 723.177 129.394 714.089 133.191" style="stroke:#a80036;stroke-width:1"/><path id="rust_wrapper-cli" fill="none" d="M613.5068,262.6292 C604.2343,279.4246 591.7512,302.0356 583.1044,317.6977" style="stroke:#a80036;stroke-width:1;stroke-dasharray:7,7"/><polygon fill="#A80036" points="616.031 258.057 608.179 264.003 613.615 262.434 615.183 267.869 616.031 258.057" style="stroke:#a80036;stroke-width:1"/><path id="rust_wrapper-LibVCX" fill="none" d="M638.4932,262.6292 C647.7657,279.4246 660.2488,302.0356 668.8956,317.6977" style="stroke:#a80036;stroke-width:1;stroke-dasharray:7,7"/><polygon fill="#A80036" points="635.969 258.057 636.817 267.869 638.385 262.434 643.821 264.003 635.969 258.057" style="stroke:#a80036;stroke-width:1"/><path id="LibVCX-cinterface_libvcx" fill="none" d="M679,354.1511 C679,377.2853 679,416.3808 679,433.9608" style="stroke:#a80036;stroke-width:1"/><path id="cinterface_libvcx-objc_wrapper_libvcx" fill="none" d="M692.906,448.5728 C731.1176,463.8861 838.9783,507.1112 900.8611,531.9106" style="stroke:#a80036;stroke-width:1;stroke-dasharray:7,7"/><polygon fill="#A80036" points="688.191 446.683 695.057 453.744 692.832 448.543 698.033 446.318 688.191 446.683" style="stroke:#a80036;stroke-width:1"/><path id="cinterface_libvcx-java_wrapper_libvcx" fill="none" d="M688.9266,456.6173 C702.831,475.6913 728.1416,510.4122 743.6744,531.72" style="stroke:#a80036;stroke-width:1;stroke-dasharray:7,7"/><polygon fill="#A80036" points="685.65 452.123 687.72 461.752 688.596 456.163 694.184 457.039 685.65 452.123" style="stroke:#a80036;stroke-width:1"/><path id="cinterface_libvcx-nodejs_wrapper_libvcx" fill="none" d="M669.0734,456.6173 C655.169,475.6913 629.8584,510.4122 614.3256,531.72" style="stroke:#a80036;stroke-width:1;stroke-dasharray:7,7"/><polygon fill="#A80036" points="672.35 452.123 663.816 457.039 669.404 456.163 670.28 461.752 672.35 452.123" style="stroke:#a80036;stroke-width:1"/><path id="cinterface_libvcx-python_wrapper_libvcx" fill="none" d="M664.9208,447.7577 C636.6321,457.4615 571.0622,480.6839 518,505 C500.2526,513.1329 481.0192,523.3291 465.4403,531.9586" style="stroke:#a80036;stroke-width:1;stroke-dasharray:7,7"/><polygon fill="#A80036" points="669.758 446.106 659.948 445.229 665.026 447.722 662.533 452.8 669.758 446.106" style="stroke:#a80036;stroke-width:1"/></g></svg>