<svg xmlns="http://www.w3.org/2000/svg" xmlns:xlink="http://www.w3.org/1999/xlink" width="1026" height="278" contentScriptType="application/ecmascript" contentStyleType="text/css" style="width:1026px;height:278px" preserveAspectRatio="none" version="1.1" viewBox="0 0 1026 278" zoomAndPan="magnify"><defs><filter id="f18f5tojc48wl6" width="300%" height="300%" x="-1" y="-1"><feGaussianBlur result="blurOut" stdDeviation="2"/><feColorMatrix in="blurOut" result="blurOut2" type="matrix" values="0 0 0 0 0 0 0 0 0 0 0 0 0 0 0 0 0 0 .4 0"/><feOffset dx="4" dy="4" in="blurOut2" result="blurOut3"/><feBlend in="SourceGraphic" in2="blurOut3" mode="normal"/></filter></defs><g><polygon fill="#FFF" points="14 195 301 195 308 217.297 1004 217.297 1004 266 14 266 14 195" filter="url(#f18f5tojc48wl6)" style="stroke:#000;stroke-width:1.5"/><line style="stroke:#000;stroke-width:1.5" x1="14" x2="308" y1="217.297" y2="217.297"/><text x="18" y="209.995" fill="#000" font-family="sans-serif" font-size="14" font-weight="bold" lengthAdjust="spacingAndGlyphs" textLength="281">Programming lanugages wrappers</text><rect style="stroke:#a80036;stroke-width:1.5" width="110" height="36.297" x="886" y="222" fill="#FEFECE" filter="url(#f18f5tojc48wl6)"/><rect style="stroke:#a80036;stroke-width:1.5" width="10" height="5" x="881" y="227" fill="#FEFECE"/><rect style="stroke:#a80036;stroke-width:1.5" width="10" height="5" x="881" y="248.297" fill="#FEFECE"/><text x="896" y="244.995" fill="#000" font-family="sans-serif" font-size="14" lengthAdjust="spacingAndGlyphs" textLength="90">Java Wrapper</text><rect style="stroke:#a80036;stroke-width:1.5" width="132" height="36.297" x="719" y="222" fill="#FEFECE" filter="url(#f18f5tojc48wl6)"/><rect style="stroke:#a80036;stroke-width:1.5" width="10" height="5" x="714" y="227" fill="#FEFECE"/><rect style="stroke:#a80036;stroke-width:1.5" width="10" height="5" x="714" y="248.297" fill="#FEFECE"/><text x="729" y="244.995" fill="#000" font-family="sans-serif" font-size="14" lengthAdjust="spacingAndGlyphs" textLength="112">NodeJS Wrapper</text><rect style="stroke:#a80036;stroke-width:1.5" width="115" height="36.297" x="568.5" y="222" fill="#FEFECE" filter="url(#f18f5tojc48wl6)"/><rect style="stroke:#a80036;stroke-width:1.5" width="10" height="5" x="563.5" y="227" fill="#FEFECE"/><rect style="stroke:#a80036;stroke-width:1.5" width="10" height="5" x="563.5" y="248.297" fill="#FEFECE"/><text x="578.5" y="244.995" fill="#000" font-family="sans-serif" font-size="14" lengthAdjust="spacingAndGlyphs" textLength="95">Rust Wrapper</text><rect style="stroke:#a80036;stroke-width:1.5" width="131" height="36.297" x="402.5" y="222" fill="#FEFECE" filter="url(#f18f5tojc48wl6)"/><rect style="stroke:#a80036;stroke-width:1.5" width="10" height="5" x="397.5" y="227" fill="#FEFECE"/><rect style="stroke:#a80036;stroke-width:1.5" width="10" height="5" x="397.5" y="248.297" fill="#FEFECE"/><text x="412.5" y="244.995" fill="#000" font-family="sans-serif" font-size="14" lengthAdjust="spacingAndGlyphs" textLength="111">Python Wrapper</text><rect style="stroke:#a80036;stroke-width:1.5" width="197" height="36.297" x="170.5" y="222" fill="#FEFECE" filter="url(#f18f5tojc48wl6)"/><rect style="stroke:#a80036;stroke-width:1.5" width="10" height="5" x="165.5" y="227" fill="#FEFECE"/><rect style="stroke:#a80036;stroke-width:1.5" width="10" height="5" x="165.5" y="248.297" fill="#FEFECE"/><text x="180.5" y="244.995" fill="#000" font-family="sans-serif" font-size="14" lengthAdjust="spacingAndGlyphs" textLength="177">ObjectiveC Wrapper (iOS)</text><rect style="stroke:#a80036;stroke-width:1.5" width="113" height="36.297" x="22.5" y="222" fill="#FEFECE" filter="url(#f18f5tojc48wl6)"/><rect style="stroke:#a80036;stroke-width:1.5" width="10" height="5" x="17.5" y="227" fill="#FEFECE"/><rect style="stroke:#a80036;stroke-width:1.5" width="10" height="5" x="17.5" y="248.297" fill="#FEFECE"/><text x="32.5" y="244.995" fill="#000" font-family="sans-serif" font-size="14" lengthAdjust="spacingAndGlyphs" textLength="93">.Net Wrapper</text><ellipse cx="547" cy="133" fill="#FEFECE" filter="url(#f18f5tojc48wl6)" rx="8" ry="8" style="stroke:#a80036;stroke-width:2"/><text x="508.5" y="162.995" fill="#000" font-family="sans-serif" font-size="14" lengthAdjust="spacingAndGlyphs" textLength="77">C Interface</text><rect style="stroke:#a80036;stroke-width:1.5" width="63" height="36.297" x="515.5" y="8" fill="#FEFECE" filter="url(#f18f5tojc48wl6)"/><rect style="stroke:#a80036;stroke-width:1.5" width="10" height="5" x="510.5" y="13" fill="#FEFECE"/><rect style="stroke:#a80036;stroke-width:1.5" width="10" height="5" x="510.5" y="34.297" fill="#FEFECE"/><text x="525.5" y="30.995" fill="#000" font-family="sans-serif" font-size="14" lengthAdjust="spacingAndGlyphs" textLength="43">libindy</text><path id="libindy-cinterface" fill="none" d="M547,44.1511 C547,67.2853 547,106.3808 547,123.9608" style="stroke:#a80036;stroke-width:1"/><path id="cinterface-java_wrapper" fill="none" d="M561.1244,133.8696 C607.0494,137.079 755.7119,150.4841 869,195 C886.0121,201.6848 903.4363,212.4516 916.882,221.7775" style="stroke:#a80036;stroke-width:1;stroke-dasharray:7,7"/><polygon fill="#A80036" points="556.042 133.527 564.753 138.123 561.031 133.863 565.291 130.142 556.042 133.527" style="stroke:#a80036;stroke-width:1"/><path id="cinterface-nodejs_wrapper" fill="none" d="M561.1805,138.1172 C588.5879,148.1367 650.5757,171.4288 701,195 C718.5354,203.197 737.588,213.301 753.1083,221.8566" style="stroke:#a80036;stroke-width:1;stroke-dasharray:7,7"/><polygon fill="#A80036" points="556.174 136.294 563.262 143.132 560.872 138.005 565.999 135.615 556.174 136.294" style="stroke:#a80036;stroke-width:1"/><path id="cinterface-rust_wrapper" fill="none" d="M557.0539,146.6173 C571.1366,165.6913 596.7716,200.4122 612.5036,221.72" style="stroke:#a80036;stroke-width:1;stroke-dasharray:7,7"/><polygon fill="#A80036" points="553.736 142.123 555.863 151.739 556.705 146.145 562.299 146.987 553.736 142.123" style="stroke:#a80036;stroke-width:1"/><path id="cinterface-python_wrapper" fill="none" d="M536.9461,146.6173 C522.8634,165.6913 497.2284,200.4122 481.4964,221.72" style="stroke:#a80036;stroke-width:1;stroke-dasharray:7,7"/><polygon fill="#A80036" points="540.264 142.123 531.701 146.987 537.295 146.145 538.137 151.739 540.264 142.123" style="stroke:#a80036;stroke-width:1"/><path id="cinterface-objc_wrapper" fill="none" d="M533.0674,138.3078 C505.0223,148.9974 439.7597,173.8999 385,195 C362.0215,203.8541 336.5051,213.7462 315.2677,221.996" style="stroke:#a80036;stroke-width:1;stroke-dasharray:7,7"/><polygon fill="#A80036" points="537.86 136.481 528.025 135.949 533.188 138.262 530.875 143.424 537.86 136.481" style="stroke:#a80036;stroke-width:1"/><path id="cinterface-dnet_wrapper" fill="none" d="M532.5942,133.2679 C480.061,134.6554 294.4598,143.1674 153,195 C135.3522,201.4664 117.2956,212.3468 103.437,221.7889" style="stroke:#a80036;stroke-width:1;stroke-dasharray:7,7"/><polygon fill="#A80036" points="537.798 133.143 528.705 129.361 532.799 133.263 528.897 137.358 537.798 133.143" style="stroke:#a80036;stroke-width:1"/></g></svg>