<svg xmlns="http://www.w3.org/2000/svg" xmlns:xlink="http://www.w3.org/1999/xlink" width="1327" height="291" contentScriptType="application/ecmascript" contentStyleType="text/css" style="width:1327px;height:291px" preserveAspectRatio="none" version="1.1" viewBox="0 0 1327 291" zoomAndPan="magnify"><defs><filter id="f3ikzvfygz67d" width="300%" height="300%" x="-1" y="-1"><feGaussianBlur result="blurOut" stdDeviation="2"/><feColorMatrix in="blurOut" result="blurOut2" type="matrix" values="0 0 0 0 0 0 0 0 0 0 0 0 0 0 0 0 0 0 .4 0"/><feOffset dx="4" dy="4" in="blurOut2" result="blurOut3"/><feBlend in="SourceGraphic" in2="blurOut3" mode="normal"/></filter></defs><g><polygon fill="#FFF" points="14 16 106 16 113 38.297 1305 38.297 1305 87 14 87 14 16" filter="url(#f3ikzvfygz67d)" style="stroke:#000;stroke-width:1.5"/><line style="stroke:#000;stroke-width:1.5" x1="14" x2="113" y1="38.297" y2="38.297"/><text x="18" y="30.995" fill="#000" font-family="sans-serif" font-size="14" font-weight="bold" lengthAdjust="spacingAndGlyphs" textLength="86">Libindy API</text><polygon fill="#FFF" points="23 112 261 112 268 134.297 1295 134.297 1295 183 23 183 23 112" filter="url(#f3ikzvfygz67d)" style="stroke:#000;stroke-width:1.5"/><line style="stroke:#000;stroke-width:1.5" x1="23" x2="268" y1="134.297" y2="134.297"/><text x="27" y="126.995" fill="#000" font-family="sans-serif" font-size="14" font-weight="bold" lengthAdjust="spacingAndGlyphs" textLength="232">Libindy Commands Executors</text><polygon fill="#FFF" points="184 208 319 208 326 230.297 1118 230.297 1118 279 184 279 184 208" filter="url(#f3ikzvfygz67d)" style="stroke:#000;stroke-width:1.5"/><line style="stroke:#000;stroke-width:1.5" x1="184" x2="326" y1="230.297" y2="230.297"/><text x="188" y="222.995" fill="#000" font-family="sans-serif" font-size="14" font-weight="bold" lengthAdjust="spacingAndGlyphs" textLength="129">Libindy Services</text><rect style="stroke:#a80036;stroke-width:1.5" width="120" height="36.297" x="1177" y="43" fill="#FEFECE" filter="url(#f3ikzvfygz67d)"/><rect style="stroke:#a80036;stroke-width:1.5" width="10" height="5" x="1172" y="48" fill="#FEFECE"/><rect style="stroke:#a80036;stroke-width:1.5" width="10" height="5" x="1172" y="69.297" fill="#FEFECE"/><text x="1187" y="65.995" fill="#000" font-family="sans-serif" font-size="14" lengthAdjust="spacingAndGlyphs" textLength="100">Anoncreds API</text><rect style="stroke:#a80036;stroke-width:1.5" width="89" height="36.297" x="806.5" y="43" fill="#FEFECE" filter="url(#f3ikzvfygz67d)"/><rect style="stroke:#a80036;stroke-width:1.5" width="10" height="5" x="801.5" y="48" fill="#FEFECE"/><rect style="stroke:#a80036;stroke-width:1.5" width="10" height="5" x="801.5" y="69.297" fill="#FEFECE"/><text x="816.5" y="65.995" fill="#000" font-family="sans-serif" font-size="14" lengthAdjust="spacingAndGlyphs" textLength="69">Cache API</text><rect style="stroke:#a80036;stroke-width:1.5" width="90" height="36.297" x="1052" y="43" fill="#FEFECE" filter="url(#f3ikzvfygz67d)"/><rect style="stroke:#a80036;stroke-width:1.5" width="10" height="5" x="1047" y="48" fill="#FEFECE"/><rect style="stroke:#a80036;stroke-width:1.5" width="10" height="5" x="1047" y="69.297" fill="#FEFECE"/><text x="1062" y="65.995" fill="#000" font-family="sans-serif" font-size="14" lengthAdjust="spacingAndGlyphs" textLength="70">Crypto API</text><rect style="stroke:#a80036;stroke-width:1.5" width="70" height="36.297" x="536" y="43" fill="#FEFECE" filter="url(#f3ikzvfygz67d)"/><rect style="stroke:#a80036;stroke-width:1.5" width="10" height="5" x="531" y="48" fill="#FEFECE"/><rect style="stroke:#a80036;stroke-width:1.5" width="10" height="5" x="531" y="69.297" fill="#FEFECE"/><text x="546" y="65.995" fill="#000" font-family="sans-serif" font-size="14" lengthAdjust="spacingAndGlyphs" textLength="50">DID API</text><rect style="stroke:#a80036;stroke-width:1.5" width="93" height="36.297" x="267.5" y="43" fill="#FEFECE" filter="url(#f3ikzvfygz67d)"/><rect style="stroke:#a80036;stroke-width:1.5" width="10" height="5" x="262.5" y="48" fill="#FEFECE"/><rect style="stroke:#a80036;stroke-width:1.5" width="10" height="5" x="262.5" y="69.297" fill="#FEFECE"/><text x="277.5" y="65.995" fill="#000" font-family="sans-serif" font-size="14" lengthAdjust="spacingAndGlyphs" textLength="73">Ledger API</text><rect style="stroke:#a80036;stroke-width:1.5" width="130" height="36.297" x="641" y="43" fill="#FEFECE" filter="url(#f3ikzvfygz67d)"/><rect style="stroke:#a80036;stroke-width:1.5" width="10" height="5" x="636" y="48" fill="#FEFECE"/><rect style="stroke:#a80036;stroke-width:1.5" width="10" height="5" x="636" y="69.297" fill="#FEFECE"/><text x="651" y="65.995" fill="#000" font-family="sans-serif" font-size="14" lengthAdjust="spacingAndGlyphs" textLength="110">Non Secrets API</text><rect style="stroke:#a80036;stroke-width:1.5" width="101" height="36.297" x="131.5" y="43" fill="#FEFECE" filter="url(#f3ikzvfygz67d)"/><rect style="stroke:#a80036;stroke-width:1.5" width="10" height="5" x="126.5" y="48" fill="#FEFECE"/><rect style="stroke:#a80036;stroke-width:1.5" width="10" height="5" x="126.5" y="69.297" fill="#FEFECE"/><text x="141.5" y="65.995" fill="#000" font-family="sans-serif" font-size="14" lengthAdjust="spacingAndGlyphs" textLength="81">Pairwise API</text><rect style="stroke:#a80036;stroke-width:1.5" width="105" height="36.297" x="395.5" y="43" fill="#FEFECE" filter="url(#f3ikzvfygz67d)"/><rect style="stroke:#a80036;stroke-width:1.5" width="10" height="5" x="390.5" y="48" fill="#FEFECE"/><rect style="stroke:#a80036;stroke-width:1.5" width="10" height="5" x="390.5" y="69.297" fill="#FEFECE"/><text x="405.5" y="65.995" fill="#000" font-family="sans-serif" font-size="14" lengthAdjust="spacingAndGlyphs" textLength="85">Payment API</text><rect style="stroke:#a80036;stroke-width:1.5" width="75" height="36.297" x="21.5" y="43" fill="#FEFECE" filter="url(#f3ikzvfygz67d)"/><rect style="stroke:#a80036;stroke-width:1.5" width="10" height="5" x="16.5" y="48" fill="#FEFECE"/><rect style="stroke:#a80036;stroke-width:1.5" width="10" height="5" x="16.5" y="69.297" fill="#FEFECE"/><text x="31.5" y="65.995" fill="#000" font-family="sans-serif" font-size="14" lengthAdjust="spacingAndGlyphs" textLength="55">Pool API</text><rect style="stroke:#a80036;stroke-width:1.5" width="86" height="36.297" x="931" y="43" fill="#FEFECE" filter="url(#f3ikzvfygz67d)"/><rect style="stroke:#a80036;stroke-width:1.5" width="10" height="5" x="926" y="48" fill="#FEFECE"/><rect style="stroke:#a80036;stroke-width:1.5" width="10" height="5" x="926" y="69.297" fill="#FEFECE"/><text x="941" y="65.995" fill="#000" font-family="sans-serif" font-size="14" lengthAdjust="spacingAndGlyphs" textLength="66">Wallet API</text><rect style="stroke:#a80036;stroke-width:1.5" width="118" height="36.297" x="1169" y="139" fill="#FEFECE" filter="url(#f3ikzvfygz67d)"/><rect style="stroke:#a80036;stroke-width:1.5" width="10" height="5" x="1164" y="144" fill="#FEFECE"/><rect style="stroke:#a80036;stroke-width:1.5" width="10" height="5" x="1164" y="165.297" fill="#FEFECE"/><text x="1179" y="161.995" fill="#000" font-family="sans-serif" font-size="14" lengthAdjust="spacingAndGlyphs" textLength="98">Anoncreds CE</text><rect style="stroke:#a80036;stroke-width:1.5" width="87" height="36.297" x="804.5" y="139" fill="#FEFECE" filter="url(#f3ikzvfygz67d)"/><rect style="stroke:#a80036;stroke-width:1.5" width="10" height="5" x="799.5" y="144" fill="#FEFECE"/><rect style="stroke:#a80036;stroke-width:1.5" width="10" height="5" x="799.5" y="165.297" fill="#FEFECE"/><text x="814.5" y="161.995" fill="#000" font-family="sans-serif" font-size="14" lengthAdjust="spacingAndGlyphs" textLength="67">Cache CE</text><rect style="stroke:#a80036;stroke-width:1.5" width="88" height="36.297" x="1046" y="139" fill="#FEFECE" filter="url(#f3ikzvfygz67d)"/><rect style="stroke:#a80036;stroke-width:1.5" width="10" height="5" x="1041" y="144" fill="#FEFECE"/><rect style="stroke:#a80036;stroke-width:1.5" width="10" height="5" x="1041" y="165.297" fill="#FEFECE"/><text x="1056" y="161.995" fill="#000" font-family="sans-serif" font-size="14" lengthAdjust="spacingAndGlyphs" textLength="68">Crypto CE</text><rect style="stroke:#a80036;stroke-width:1.5" width="68" height="36.297" x="538" y="139" fill="#FEFECE" filter="url(#f3ikzvfygz67d)"/><rect style="stroke:#a80036;stroke-width:1.5" width="10" height="5" x="533" y="144" fill="#FEFECE"/><rect style="stroke:#a80036;stroke-width:1.5" width="10" height="5" x="533" y="165.297" fill="#FEFECE"/><text x="548" y="161.995" fill="#000" font-family="sans-serif" font-size="14" lengthAdjust="spacingAndGlyphs" textLength="48">DID CE</text><rect style="stroke:#a80036;stroke-width:1.5" width="91" height="36.297" x="273.5" y="139" fill="#FEFECE" filter="url(#f3ikzvfygz67d)"/><rect style="stroke:#a80036;stroke-width:1.5" width="10" height="5" x="268.5" y="144" fill="#FEFECE"/><rect style="stroke:#a80036;stroke-width:1.5" width="10" height="5" x="268.5" y="165.297" fill="#FEFECE"/><text x="283.5" y="161.995" fill="#000" font-family="sans-serif" font-size="14" lengthAdjust="spacingAndGlyphs" textLength="71">Ledger CE</text><rect style="stroke:#a80036;stroke-width:1.5" width="128" height="36.297" x="641" y="139" fill="#FEFECE" filter="url(#f3ikzvfygz67d)"/><rect style="stroke:#a80036;stroke-width:1.5" width="10" height="5" x="636" y="144" fill="#FEFECE"/><rect style="stroke:#a80036;stroke-width:1.5" width="10" height="5" x="636" y="165.297" fill="#FEFECE"/><text x="651" y="161.995" fill="#000" font-family="sans-serif" font-size="14" lengthAdjust="spacingAndGlyphs" textLength="108">Non Secrets CE</text><rect style="stroke:#a80036;stroke-width:1.5" width="99" height="36.297" x="139.5" y="139" fill="#FEFECE" filter="url(#f3ikzvfygz67d)"/><rect style="stroke:#a80036;stroke-width:1.5" width="10" height="5" x="134.5" y="144" fill="#FEFECE"/><rect style="stroke:#a80036;stroke-width:1.5" width="10" height="5" x="134.5" y="165.297" fill="#FEFECE"/><text x="149.5" y="161.995" fill="#000" font-family="sans-serif" font-size="14" lengthAdjust="spacingAndGlyphs" textLength="79">Pairwise CE</text><rect style="stroke:#a80036;stroke-width:1.5" width="103" height="36.297" x="399.5" y="139" fill="#FEFECE" filter="url(#f3ikzvfygz67d)"/><rect style="stroke:#a80036;stroke-width:1.5" width="10" height="5" x="394.5" y="144" fill="#FEFECE"/><rect style="stroke:#a80036;stroke-width:1.5" width="10" height="5" x="394.5" y="165.297" fill="#FEFECE"/><text x="409.5" y="161.995" fill="#000" font-family="sans-serif" font-size="14" lengthAdjust="spacingAndGlyphs" textLength="83">Payment CE</text><rect style="stroke:#a80036;stroke-width:1.5" width="73" height="36.297" x="31.5" y="139" fill="#FEFECE" filter="url(#f3ikzvfygz67d)"/><rect style="stroke:#a80036;stroke-width:1.5" width="10" height="5" x="26.5" y="144" fill="#FEFECE"/><rect style="stroke:#a80036;stroke-width:1.5" width="10" height="5" x="26.5" y="165.297" fill="#FEFECE"/><text x="41.5" y="161.995" fill="#000" font-family="sans-serif" font-size="14" lengthAdjust="spacingAndGlyphs" textLength="53">Pool CE</text><rect style="stroke:#a80036;stroke-width:1.5" width="84" height="36.297" x="927" y="139" fill="#FEFECE" filter="url(#f3ikzvfygz67d)"/><rect style="stroke:#a80036;stroke-width:1.5" width="10" height="5" x="922" y="144" fill="#FEFECE"/><rect style="stroke:#a80036;stroke-width:1.5" width="10" height="5" x="922" y="165.297" fill="#FEFECE"/><text x="937" y="161.995" fill="#000" font-family="sans-serif" font-size="14" lengthAdjust="spacingAndGlyphs" textLength="64">Wallet CE</text><rect style="stroke:#a80036;stroke-width:1.5" width="149" height="36.297" x="961.5" y="235" fill="#FEFECE" filter="url(#f3ikzvfygz67d)"/><rect style="stroke:#a80036;stroke-width:1.5" width="10" height="5" x="956.5" y="240" fill="#FEFECE"/><rect style="stroke:#a80036;stroke-width:1.5" width="10" height="5" x="956.5" y="261.297" fill="#FEFECE"/><text x="971.5" y="257.995" fill="#000" font-family="sans-serif" font-size="14" lengthAdjust="spacingAndGlyphs" textLength="129">Anoncreds Service</text><rect style="stroke:#a80036;stroke-width:1.5" width="119" height="36.297" x="807.5" y="235" fill="#FEFECE" filter="url(#f3ikzvfygz67d)"/><rect style="stroke:#a80036;stroke-width:1.5" width="10" height="5" x="802.5" y="240" fill="#FEFECE"/><rect style="stroke:#a80036;stroke-width:1.5" width="10" height="5" x="802.5" y="261.297" fill="#FEFECE"/><text x="817.5" y="257.995" fill="#000" font-family="sans-serif" font-size="14" lengthAdjust="spacingAndGlyphs" textLength="99">Crypto Service</text><rect style="stroke:#a80036;stroke-width:1.5" width="122" height="36.297" x="500" y="235" fill="#FEFECE" filter="url(#f3ikzvfygz67d)"/><rect style="stroke:#a80036;stroke-width:1.5" width="10" height="5" x="495" y="240" fill="#FEFECE"/><rect style="stroke:#a80036;stroke-width:1.5" width="10" height="5" x="495" y="261.297" fill="#FEFECE"/><text x="510" y="257.995" fill="#000" font-family="sans-serif" font-size="14" lengthAdjust="spacingAndGlyphs" textLength="102">Ledger Service</text><rect style="stroke:#a80036;stroke-width:1.5" width="134" height="36.297" x="331" y="235" fill="#FEFECE" filter="url(#f3ikzvfygz67d)"/><rect style="stroke:#a80036;stroke-width:1.5" width="10" height="5" x="326" y="240" fill="#FEFECE"/><rect style="stroke:#a80036;stroke-width:1.5" width="10" height="5" x="326" y="261.297" fill="#FEFECE"/><text x="341" y="257.995" fill="#000" font-family="sans-serif" font-size="14" lengthAdjust="spacingAndGlyphs" textLength="114">Payment Service</text><rect style="stroke:#a80036;stroke-width:1.5" width="104" height="36.297" x="192" y="235" fill="#FEFECE" filter="url(#f3ikzvfygz67d)"/><rect style="stroke:#a80036;stroke-width:1.5" width="10" height="5" x="187" y="240" fill="#FEFECE"/><rect style="stroke:#a80036;stroke-width:1.5" width="10" height="5" x="187" y="261.297" fill="#FEFECE"/><text x="202" y="257.995" fill="#000" font-family="sans-serif" font-size="14" lengthAdjust="spacingAndGlyphs" textLength="84">Pool Service</text><rect style="stroke:#a80036;stroke-width:1.5" width="115" height="36.297" x="657.5" y="235" fill="#FEFECE" filter="url(#f3ikzvfygz67d)"/><rect style="stroke:#a80036;stroke-width:1.5" width="10" height="5" x="652.5" y="240" fill="#FEFECE"/><rect style="stroke:#a80036;stroke-width:1.5" width="10" height="5" x="652.5" y="261.297" fill="#FEFECE"/><text x="667.5" y="257.995" fill="#000" font-family="sans-serif" font-size="14" lengthAdjust="spacingAndGlyphs" textLength="95">Wallet Service</text><path id="anoncreds_api-anoncreds_ce" fill="none" d="M1235.3072,79.0569 C1233.8582,94.5126 1231.7627,116.8647 1230.1869,133.6731" style="stroke:#a80036;stroke-width:1;stroke-dasharray:1,3"/><polygon fill="#A80036" points="1229.716 138.698 1234.538 130.11 1230.182 133.72 1226.573 129.364 1229.716 138.698" style="stroke:#a80036;stroke-width:1"/><path id="cache_api-cache_ce" fill="none" d="M850.4357,79.0569 C849.9527,94.5126 849.2542,116.8647 848.729,133.6731" style="stroke:#a80036;stroke-width:1;stroke-dasharray:1,3"/><polygon fill="#A80036" points="848.572 138.698 852.851 129.827 848.728 133.7 844.855 129.577 848.572 138.698" style="stroke:#a80036;stroke-width:1"/><path id="crypto_api-crypto_ce" fill="none" d="M1095.6834,79.0569 C1094.5564,94.5126 1092.9265,116.8647 1091.7009,133.6731" style="stroke:#a80036;stroke-width:1;stroke-dasharray:1,3"/><polygon fill="#A80036" points="1091.334 138.698 1095.979 130.012 1091.698 133.711 1088 129.431 1091.334 138.698" style="stroke:#a80036;stroke-width:1"/><path id="did_api-did_ce" fill="none" d="M571.1881,79.0569 C571.3491,94.5126 571.5819,116.8647 571.757,133.6731" style="stroke:#a80036;stroke-width:1;stroke-dasharray:1,3"/><polygon fill="#A80036" points="571.809 138.698 575.715 129.656 571.757 133.698 567.716 129.74 571.809 138.698" style="stroke:#a80036;stroke-width:1"/><path id="ledger_api-ledger_ce" fill="none" d="M314.9405,79.0569 C315.7455,94.5126 316.9096,116.8647 317.7851,133.6731" style="stroke:#a80036;stroke-width:1;stroke-dasharray:1,3"/><polygon fill="#A80036" points="318.047 138.698 321.573 129.502 317.787 133.704 313.584 129.918 318.047 138.698" style="stroke:#a80036;stroke-width:1"/><path id="nonsecrets_api-nonsecrets_ce" fill="none" d="M705.8119,79.0569 C705.6509,94.5126 705.4181,116.8647 705.243,133.6731" style="stroke:#a80036;stroke-width:1;stroke-dasharray:1,3"/><polygon fill="#A80036" points="705.191 138.698 709.284 129.74 705.243 133.698 701.285 129.656 705.191 138.698" style="stroke:#a80036;stroke-width:1"/><path id="pairwise_api-pairwise_ce" fill="none" d="M183.3166,79.0569 C184.4436,94.5126 186.0735,116.8647 187.2991,133.6731" style="stroke:#a80036;stroke-width:1;stroke-dasharray:1,3"/><polygon fill="#A80036" points="187.666 138.698 191 129.431 187.302 133.711 183.021 130.012 187.666 138.698" style="stroke:#a80036;stroke-width:1"/><path id="payment_api-payment_ce" fill="none" d="M448.5643,79.0569 C449.0473,94.5126 449.7458,116.8647 450.271,133.6731" style="stroke:#a80036;stroke-width:1;stroke-dasharray:1,3"/><polygon fill="#A80036" points="450.428 138.698 454.145 129.577 450.272 133.7 446.149 129.827 450.428 138.698" style="stroke:#a80036;stroke-width:1"/><path id="pool_api-pool_ce" fill="none" d="M60.6928,79.0569 C62.1418,94.5126 64.2373,116.8647 65.8131,133.6731" style="stroke:#a80036;stroke-width:1;stroke-dasharray:1,3"/><polygon fill="#A80036" points="66.284 138.698 69.427 129.364 65.817 133.72 61.462 130.11 66.284 138.698" style="stroke:#a80036;stroke-width:1"/><path id="wallet_api-wallet_ce" fill="none" d="M973.0595,79.0569 C972.2545,94.5126 971.0904,116.8647 970.2149,133.6731" style="stroke:#a80036;stroke-width:1;stroke-dasharray:1,3"/><polygon fill="#A80036" points="969.953 138.698 974.416 129.918 970.213 133.704 966.427 129.502 969.953 138.698" style="stroke:#a80036;stroke-width:1"/><path id="anoncreds_ce-anoncreds_s" fill="none" d="M1191.8863,175.0569 C1159.1386,191.4307 1110.9113,215.5444 1076.7862,232.6069" style="stroke:#a80036;stroke-width:1;stroke-dasharray:1,3"/><polygon fill="#A80036" points="1072.278 234.861 1082.116 234.414 1076.75 232.625 1078.539 227.258 1072.278 234.861" style="stroke:#a80036;stroke-width:1"/><path id="anoncreds_ce-wallet_s" fill="none" d="M1181.5,175.0387 C1171.8728,178.1671 1161.7051,181.0399 1152,183 C993.9198,214.9273 943.8441,159.6195 790,208 C773.3418,213.2386 756.5152,222.8516 743.033,231.8516" style="stroke:#a80036;stroke-width:1;stroke-dasharray:1,3"/><polygon fill="#A80036" points="738.594 234.873 748.285 233.115 742.727 232.06 743.783 226.502 738.594 234.873" style="stroke:#a80036;stroke-width:1"/><path id="anoncreds_ce-crypto_s" fill="none" d="M1180.1951,175.0538 C1170.9402,178.0633 1161.2445,180.8878 1152,183 C1061.2293,203.739 1032.2578,178.3354 944,208 C927.3855,213.5843 910.4083,223.0292 896.6379,231.8284" style="stroke:#a80036;stroke-width:1;stroke-dasharray:1,3"/><polygon fill="#A80036" points="892.096 234.781 901.822 233.229 896.288 232.056 897.461 226.522 892.096 234.781" style="stroke:#a80036;stroke-width:1"/><path id="anoncreds_ce-pool_s" fill="none" d="M1182.3698,175.0738 C1172.4997,178.2844 1162.0161,181.1804 1152,183 C968.4766,216.34 490.983,152.1926 313,208 C297.1839,212.9592 281.5462,222.6514 269.167,231.7746" style="stroke:#a80036;stroke-width:1;stroke-dasharray:1,3"/><polygon fill="#A80036" points="265.098 234.839 274.694 232.619 269.092 231.831 269.881 226.229 265.098 234.839" style="stroke:#a80036;stroke-width:1"/><path id="cache_ce-wallet_s" fill="none" d="M822.9837,175.0569 C800.7404,191.1122 768.1871,214.6093 744.6431,231.6035" style="stroke:#a80036;stroke-width:1;stroke-dasharray:1,3"/><polygon fill="#A80036" points="740.356 234.698 749.995 232.674 744.41 231.771 745.313 226.187 740.356 234.698" style="stroke:#a80036;stroke-width:1"/><path id="crypto_ce-crypto_s" fill="none" d="M1049.5751,175.0109 C1042.7602,177.8217 1035.7182,180.5896 1029,183 C991.9355,196.2983 980.1539,192.3952 944,208 C928.5458,214.6704 912.3315,223.7904 898.7896,232.0767" style="stroke:#a80036;stroke-width:1;stroke-dasharray:1,3"/><polygon fill="#A80036" points="894.304 234.85 904.063 233.519 898.557 232.22 899.855 226.714 894.304 234.85" style="stroke:#a80036;stroke-width:1"/><path id="crypto_ce-wallet_s" fill="none" d="M1052.5423,175.0297 C1044.8964,178.1185 1036.8008,180.9785 1029,183 C925.6134,209.7922 891.3018,174.1685 790,208 C773.5662,213.4884 756.8825,223.0239 743.4364,231.9085" style="stroke:#a80036;stroke-width:1;stroke-dasharray:1,3"/><polygon fill="#A80036" points="739.006 234.89 748.706 233.184 743.154 232.099 744.24 226.547 739.006 234.89" style="stroke:#a80036;stroke-width:1"/><path id="did_ce-crypto_s" fill="none" d="M603.4284,175.0028 C609.7543,178.0547 616.4694,180.9079 623,183 C694.4713,205.8965 719.2154,183.0612 790,208 C806.5318,213.8245 823.4995,223.2971 837.285,232.0526" style="stroke:#a80036;stroke-width:1;stroke-dasharray:1,3"/><polygon fill="#A80036" points="841.833 234.988 836.44 226.746 837.632 232.276 832.102 233.468 841.833 234.988" style="stroke:#a80036;stroke-width:1"/><path id="did_ce-ledger_s" fill="none" d="M569.931,175.0569 C568.16,190.5126 565.5988,212.8647 563.6729,229.6731" style="stroke:#a80036;stroke-width:1;stroke-dasharray:1,3"/><polygon fill="#A80036" points="563.097 234.698 568.096 226.212 563.666 229.73 560.148 225.301 563.097 234.698" style="stroke:#a80036;stroke-width:1"/><path id="did_ce-wallet_s" fill="none" d="M598.8972,175.0569 C622.9122,191.1788 658.1045,214.8044 683.4427,231.8147" style="stroke:#a80036;stroke-width:1;stroke-dasharray:1,3"/><polygon fill="#A80036" points="687.737 234.698 682.494 226.36 683.586 231.911 678.035 233.002 687.737 234.698" style="stroke:#a80036;stroke-width:1"/><path id="ledger_ce-crypto_s" fill="none" d="M356.9864,175.0245 C365.0824,178.1956 373.6979,181.0885 382,183 C559.0413,223.763 616.1766,155.1734 790,208 C807.1848,213.2226 824.6057,222.9518 838.5203,232.031" style="stroke:#a80036;stroke-width:1;stroke-dasharray:1,3"/><polygon fill="#A80036" points="842.722 234.822 837.439 226.51 838.557 232.055 833.012 233.174 842.722 234.822" style="stroke:#a80036;stroke-width:1"/><path id="ledger_ce-ledger_s" fill="none" d="M360.3591,175.0746 C367.509,177.909 374.9198,180.6679 382,183 C425.5126,197.3324 439.4792,190.9486 482,208 C498.058,214.4395 514.8476,223.6142 528.7986,232.0014" style="stroke:#a80036;stroke-width:1;stroke-dasharray:1,3"/><polygon fill="#A80036" points="533.416 234.81 527.806 226.715 529.144 232.212 523.648 233.55 533.416 234.81" style="stroke:#a80036;stroke-width:1"/><path id="ledger_ce-pool_s" fill="none" d="M304.8931,175.0569 C292.6101,190.7791 274.7519,213.6375 261.5489,230.5375" style="stroke:#a80036;stroke-width:1;stroke-dasharray:1,3"/><polygon fill="#A80036" points="258.299 234.698 266.992 230.068 261.377 230.758 260.688 225.143 258.299 234.698" style="stroke:#a80036;stroke-width:1"/><path id="ledger_ce-wallet_s" fill="none" d="M357.7169,175.0599 C365.611,178.1462 373.9631,180.9975 382,183 C493.3569,210.7457 529.9132,172.3596 639,208 C655.6311,213.4336 672.5348,222.9632 686.1643,231.858" style="stroke:#a80036;stroke-width:1;stroke-dasharray:1,3"/><polygon fill="#A80036" points="690.656 234.843 685.375 226.53 686.492 232.076 680.946 233.193 690.656 234.843" style="stroke:#a80036;stroke-width:1"/><path id="nonsecrets_ce-wallet_s" fill="none" d="M706.8809,175.0569 C708.4909,190.5126 710.8192,212.8647 712.5701,229.6731" style="stroke:#a80036;stroke-width:1;stroke-dasharray:1,3"/><polygon fill="#A80036" points="713.093 234.698 716.139 225.332 712.575 229.725 708.182 226.161 713.093 234.698" style="stroke:#a80036;stroke-width:1"/><path id="pairwise_ce-wallet_s" fill="none" d="M229.8464,175.1123 C238.3449,178.235 247.3503,181.0869 256,183 C422.559,219.8396 476.0288,157.6071 639,208 C655.847,213.2093 672.8946,222.8193 686.5629,231.8249" style="stroke:#a80036;stroke-width:1;stroke-dasharray:1,3"/><polygon fill="#A80036" points="691.064 234.849 685.824 226.509 686.913 232.06 681.362 233.15 691.064 234.849" style="stroke:#a80036;stroke-width:1"/><path id="payment_ce-crypto_s" fill="none" d="M493.515,175.0464 C502.1517,178.1338 511.2676,180.989 520,183 C637.4394,210.0451 675.2534,171.1669 790,208 C806.9679,213.4466 824.2425,223.0915 838.1184,232.0588" style="stroke:#a80036;stroke-width:1;stroke-dasharray:1,3"/><polygon fill="#A80036" points="842.312 234.815 836.987 226.529 838.133 232.068 832.593 233.214 842.312 234.815" style="stroke:#a80036;stroke-width:1"/><path id="payment_ce-ledger_s" fill="none" d="M471.6902,175.0569 C490.0106,191.0456 516.7874,214.4144 536.2403,231.3916" style="stroke:#a80036;stroke-width:1;stroke-dasharray:1,3"/><polygon fill="#A80036" points="540.029 234.698 535.878 225.766 536.261 231.41 530.618 231.794 540.029 234.698" style="stroke:#a80036;stroke-width:1"/><path id="payment_ce-payment_s" fill="none" d="M441.0311,175.0569 C432.4247,190.6459 419.945,213.2506 410.6391,230.1065" style="stroke:#a80036;stroke-width:1;stroke-dasharray:1,3"/><polygon fill="#A80036" points="408.104 234.698 415.956 228.752 410.521 230.321 408.953 224.885 408.104 234.698" style="stroke:#a80036;stroke-width:1"/><path id="payment_ce-wallet_s" fill="none" d="M495.946,175.0674 C503.8895,177.9349 512.1346,180.7066 520,183 C571.8829,198.1281 588.6301,188.4151 639,208 C654.9217,214.1907 671.3788,223.5155 684.8901,232.0741" style="stroke:#a80036;stroke-width:1;stroke-dasharray:1,3"/><polygon fill="#A80036" points="689.354 234.942 683.944 226.712 685.147 232.239 679.62 233.443 689.354 234.942" style="stroke:#a80036;stroke-width:1"/><path id="pairwise_ce-pool_s" fill="none" d="M199.3451,175.0569 C208.2763,190.6459 221.2269,213.2506 230.8839,230.1065" style="stroke:#a80036;stroke-width:1;stroke-dasharray:1,3"/><polygon fill="#A80036" points="233.514 234.698 232.511 224.9 231.029 230.359 225.57 228.877 233.514 234.698" style="stroke:#a80036;stroke-width:1"/><path id="pool_ce-pool_s" fill="none" d="M101.1043,175.0569 C131.0004,191.3638 174.9707,215.3476 206.229,232.3976" style="stroke:#a80036;stroke-width:1;stroke-dasharray:1,3"/><polygon fill="#A80036" points="210.745 234.861 204.76 227.04 206.356 232.467 200.929 234.063 210.745 234.861" style="stroke:#a80036;stroke-width:1"/><path id="wallet_ce-wallet_s" fill="none" d="M930.3832,175.087 C923.3611,177.9859 916.032,180.763 909,183 C857.4996,199.3829 840.3126,188.2685 790,208 C774.251,214.1764 758.0057,223.4993 744.6786,232.0604" style="stroke:#a80036;stroke-width:1;stroke-dasharray:1,3"/><polygon fill="#A80036" points="740.276 234.929 750 233.367 744.465 232.2 745.633 226.665 740.276 234.929" style="stroke:#a80036;stroke-width:1"/><path id="wallet_ce-crypto_s" fill="none" d="M949.8146,175.0569 C932.9681,190.9124 908.4105,214.0255 890.4113,230.9658" style="stroke:#a80036;stroke-width:1;stroke-dasharray:1,3"/><polygon fill="#A80036" points="886.446 234.698 895.741 231.442 890.087 231.271 890.259 225.617 886.446 234.698" style="stroke:#a80036;stroke-width:1"/></g></svg>