<svg xmlns="http://www.w3.org/2000/svg" xmlns:xlink="http://www.w3.org/1999/xlink" width="952" height="1348" contentScriptType="application/ecmascript" contentStyleType="text/css" style="width:952px;height:1348px" preserveAspectRatio="none" version="1.1" viewBox="0 0 952 1348" zoomAndPan="magnify"><defs><filter id="f16z2ieul6t5l3" width="300%" height="300%" x="-1" y="-1"><feGaussianBlur result="blurOut" stdDeviation="2"/><feColorMatrix in="blurOut" result="blurOut2" type="matrix" values="0 0 0 0 0 0 0 0 0 0 0 0 0 0 0 0 0 0 .4 0"/><feOffset dx="4" dy="4" in="blurOut2" result="blurOut3"/><feBlend in="SourceGraphic" in2="blurOut3" mode="normal"/></filter></defs><g><rect style="stroke:#a80036;stroke-width:1" width="10" height="58.266" x="259" y="229.961" fill="#FFF" filter="url(#f16z2ieul6t5l3)"/><rect style="stroke:#a80036;stroke-width:1" width="10" height="58.266" x="259" y="559.422" fill="#FFF" filter="url(#f16z2ieul6t5l3)"/><rect style="stroke:#a80036;stroke-width:1" width="10" height="58.266" x="259" y="1084.945" fill="#FFF" filter="url(#f16z2ieul6t5l3)"/><rect style="stroke:#a80036;stroke-width:1" width="10" height="58.266" x="486.5" y="259.094" fill="#FFF" filter="url(#f16z2ieul6t5l3)"/><rect style="stroke:#a80036;stroke-width:1" width="10" height="71.266" x="486.5" y="404.758" fill="#FFF" filter="url(#f16z2ieul6t5l3)"/><rect style="stroke:#a80036;stroke-width:1" width="10" height="169.797" x="486.5" y="588.555" fill="#FFF" filter="url(#f16z2ieul6t5l3)"/><rect style="stroke:#a80036;stroke-width:1" width="10" height="71.266" x="486.5" y="915.148" fill="#FFF" filter="url(#f16z2ieul6t5l3)"/><rect style="stroke:#a80036;stroke-width:1" width="10" height="129.531" x="486.5" y="1114.078" fill="#FFF" filter="url(#f16z2ieul6t5l3)"/><rect style="stroke:#a80036;stroke-width:1" width="10" height="854.984" x="727" y="317.359" fill="#FFF" filter="url(#f16z2ieul6t5l3)"/><line style="stroke:#a80036;stroke-width:1;stroke-dasharray:5,5" x1="104" x2="104" y1="86.297" y2="1261.609"/><line style="stroke:#a80036;stroke-width:1;stroke-dasharray:5,5" x1="264" x2="264" y1="86.297" y2="1261.609"/><line style="stroke:#a80036;stroke-width:1;stroke-dasharray:5,5" x1="491.5" x2="491.5" y1="86.297" y2="1261.609"/><line style="stroke:#a80036;stroke-width:1;stroke-dasharray:5,5" x1="731.5" x2="731.5" y1="86.297" y2="1261.609"/><line style="stroke:#a80036;stroke-width:1;stroke-dasharray:5,5" x1="877.5" x2="877.5" y1="86.297" y2="1261.609"/><text x="66" y="82.995" fill="#000" font-family="sans-serif" font-size="14" lengthAdjust="spacingAndGlyphs" textLength="70">Client app</text><ellipse cx="104" cy="13" fill="#FEFECE" filter="url(#f16z2ieul6t5l3)" rx="8" ry="8" style="stroke:#a80036;stroke-width:2"/><path fill="none" d="M104,21 L104,48 M91,29 L117,29 M104,48 L91,63 M104,48 L117,63" filter="url(#f16z2ieul6t5l3)" style="stroke:#a80036;stroke-width:2"/><text x="66" y="1273.604" fill="#000" font-family="sans-serif" font-size="14" lengthAdjust="spacingAndGlyphs" textLength="70">Client app</text><ellipse cx="104" cy="1286.906" fill="#FEFECE" filter="url(#f16z2ieul6t5l3)" rx="8" ry="8" style="stroke:#a80036;stroke-width:2"/><path fill="none" d="M104,1294.9063 L104,1321.9063 M91,1302.9063 L117,1302.9063 M104,1321.9063 L91,1336.9063 M104,1321.9063 L117,1336.9063" filter="url(#f16z2ieul6t5l3)" style="stroke:#a80036;stroke-width:2"/><rect style="stroke:#a80036;stroke-width:1.5" width="106" height="30.297" x="209" y="51" fill="#FEFECE" filter="url(#f16z2ieul6t5l3)"/><text x="216" y="70.995" fill="#000" font-family="sans-serif" font-size="14" lengthAdjust="spacingAndGlyphs" textLength="92">Client Thread</text><rect style="stroke:#a80036;stroke-width:1.5" width="106" height="30.297" x="209" y="1260.609" fill="#FEFECE" filter="url(#f16z2ieul6t5l3)"/><text x="216" y="1280.604" fill="#000" font-family="sans-serif" font-size="14" lengthAdjust="spacingAndGlyphs" textLength="92">Client Thread</text><rect style="stroke:#a80036;stroke-width:1.5" width="136" height="30.297" x="421.5" y="51" fill="#FEFECE" filter="url(#f16z2ieul6t5l3)"/><text x="428.5" y="70.995" fill="#000" font-family="sans-serif" font-size="14" lengthAdjust="spacingAndGlyphs" textLength="122">Command Thread</text><rect style="stroke:#a80036;stroke-width:1.5" width="136" height="30.297" x="421.5" y="1260.609" fill="#FEFECE" filter="url(#f16z2ieul6t5l3)"/><text x="428.5" y="1280.604" fill="#000" font-family="sans-serif" font-size="14" lengthAdjust="spacingAndGlyphs" textLength="122">Command Thread</text><rect style="stroke:#a80036;stroke-width:1.5" width="95" height="30.297" x="682.5" y="51" fill="#FEFECE" filter="url(#f16z2ieul6t5l3)"/><text x="689.5" y="70.995" fill="#000" font-family="sans-serif" font-size="14" lengthAdjust="spacingAndGlyphs" textLength="81">Pool Thread</text><rect style="stroke:#a80036;stroke-width:1.5" width="95" height="30.297" x="682.5" y="1260.609" fill="#FEFECE" filter="url(#f16z2ieul6t5l3)"/><text x="689.5" y="1280.604" fill="#000" font-family="sans-serif" font-size="14" lengthAdjust="spacingAndGlyphs" textLength="81">Pool Thread</text><text x="820.5" y="82.995" fill="#000" font-family="sans-serif" font-size="14" lengthAdjust="spacingAndGlyphs" textLength="109">Pool with nodes</text><ellipse cx="878" cy="13" fill="#00F" filter="url(#f16z2ieul6t5l3)" rx="8" ry="8" style="stroke:#a80036;stroke-width:2"/><path fill="none" d="M878,21 L878,48 M865,29 L891,29 M878,48 L865,63 M878,48 L891,63" filter="url(#f16z2ieul6t5l3)" style="stroke:#a80036;stroke-width:2"/><text x="820.5" y="1273.604" fill="#000" font-family="sans-serif" font-size="14" lengthAdjust="spacingAndGlyphs" textLength="109">Pool with nodes</text><ellipse cx="878" cy="1286.906" fill="#00F" filter="url(#f16z2ieul6t5l3)" rx="8" ry="8" style="stroke:#a80036;stroke-width:2"/><path fill="none" d="M878,1294.9063 L878,1321.9063 M865,1302.9063 L891,1302.9063 M878,1321.9063 L865,1336.9063 M878,1321.9063 L891,1336.9063" filter="url(#f16z2ieul6t5l3)" style="stroke:#a80036;stroke-width:2"/><rect style="stroke:#a80036;stroke-width:1" width="10" height="58.266" x="259" y="229.961" fill="#FFF" filter="url(#f16z2ieul6t5l3)"/><rect style="stroke:#a80036;stroke-width:1" width="10" height="58.266" x="259" y="559.422" fill="#FFF" filter="url(#f16z2ieul6t5l3)"/><rect style="stroke:#a80036;stroke-width:1" width="10" height="58.266" x="259" y="1084.945" fill="#FFF" filter="url(#f16z2ieul6t5l3)"/><rect style="stroke:#a80036;stroke-width:1" width="10" height="58.266" x="486.5" y="259.094" fill="#FFF" filter="url(#f16z2ieul6t5l3)"/><rect style="stroke:#a80036;stroke-width:1" width="10" height="71.266" x="486.5" y="404.758" fill="#FFF" filter="url(#f16z2ieul6t5l3)"/><rect style="stroke:#a80036;stroke-width:1" width="10" height="169.797" x="486.5" y="588.555" fill="#FFF" filter="url(#f16z2ieul6t5l3)"/><rect style="stroke:#a80036;stroke-width:1" width="10" height="71.266" x="486.5" y="915.148" fill="#FFF" filter="url(#f16z2ieul6t5l3)"/><rect style="stroke:#a80036;stroke-width:1" width="10" height="129.531" x="486.5" y="1114.078" fill="#FFF" filter="url(#f16z2ieul6t5l3)"/><rect style="stroke:#a80036;stroke-width:1" width="10" height="854.984" x="727" y="317.359" fill="#FFF" filter="url(#f16z2ieul6t5l3)"/><path fill="#FBFB77" d="M161,101.2969 L161,156.2969 L362,156.2969 L362,111.2969 L352,101.2969 L161,101.2969" filter="url(#f16z2ieul6t5l3)" style="stroke:#a80036;stroke-width:1"/><path fill="#FBFB77" d="M352,101.2969 L352,111.2969 L362,111.2969 L352,101.2969" style="stroke:#a80036;stroke-width:1"/><text x="167" y="118.364" fill="#000" font-family="sans-serif" font-size="13" lengthAdjust="spacingAndGlyphs" textLength="159">Thread of an application,</text><text x="167" y="133.497" fill="#000" font-family="sans-serif" font-size="13" lengthAdjust="spacingAndGlyphs" textLength="180">used to transfer commands</text><text x="167" y="148.629" fill="#000" font-family="sans-serif" font-size="13" lengthAdjust="spacingAndGlyphs" textLength="134">to Command thread.</text><path fill="#FBFB77" d="M376,101.2969 L376,156.2969 L602,156.2969 L602,111.2969 L592,101.2969 L376,101.2969" filter="url(#f16z2ieul6t5l3)" style="stroke:#a80036;stroke-width:1"/><path fill="#FBFB77" d="M592,101.2969 L592,111.2969 L602,111.2969 L592,101.2969" style="stroke:#a80036;stroke-width:1"/><text x="382" y="118.364" fill="#000" font-family="sans-serif" font-size="13" lengthAdjust="spacingAndGlyphs" textLength="166">Main thread of the library.</text><text x="382" y="133.497" fill="#000" font-family="sans-serif" font-size="13" lengthAdjust="spacingAndGlyphs" textLength="205">It executes biggest part of logic</text><text x="382" y="148.629" fill="#000" font-family="sans-serif" font-size="13" lengthAdjust="spacingAndGlyphs" textLength="196">that is implemented in Libindy</text><path fill="#FBFB77" d="M616,101.2969 L616,141.2969 L843,141.2969 L843,111.2969 L833,101.2969 L616,101.2969" filter="url(#f16z2ieul6t5l3)" style="stroke:#a80036;stroke-width:1"/><path fill="#FBFB77" d="M833,101.2969 L833,111.2969 L843,111.2969 L833,101.2969" style="stroke:#a80036;stroke-width:1"/><text x="622" y="118.364" fill="#000" font-family="sans-serif" font-size="13" lengthAdjust="spacingAndGlyphs" textLength="206">Thread used for communication</text><text x="622" y="133.497" fill="#000" font-family="sans-serif" font-size="13" lengthAdjust="spacingAndGlyphs" textLength="117">with nodes in pool</text><rect style="stroke:#eee;stroke-width:1" width="937.5" height="3" x="3" y="186.262" fill="#EEE" filter="url(#f16z2ieul6t5l3)"/><line style="stroke:#000;stroke-width:1" x1="3" x2="940.5" y1="186.262" y2="186.262"/><line style="stroke:#000;stroke-width:1" x1="3" x2="940.5" y1="189.262" y2="189.262"/><rect style="stroke:#000;stroke-width:2" width="255" height="23.133" x="344.25" y="175.695" fill="#EEE" filter="url(#f16z2ieul6t5l3)"/><text x="350.25" y="191.762" fill="#000" font-family="sans-serif" font-size="13" font-weight="bold" lengthAdjust="spacingAndGlyphs" textLength="241">Pool communication commands</text><polygon fill="#A80036" points="247 225.961 257 229.961 247 233.961 251 229.961" style="stroke:#a80036;stroke-width:1"/><line style="stroke:#a80036;stroke-width:1" x1="104" x2="253" y1="229.961" y2="229.961"/><text x="111" y="224.895" fill="#000" font-family="sans-serif" font-size="13" lengthAdjust="spacingAndGlyphs" textLength="101">indy_open_pool</text><polygon fill="#A80036" points="474.5 255.094 484.5 259.094 474.5 263.094 478.5 259.094" style="stroke:#a80036;stroke-width:1"/><line style="stroke:#a80036;stroke-width:1" x1="269" x2="480.5" y1="259.094" y2="259.094"/><text x="276" y="254.028" fill="#000" font-family="sans-serif" font-size="13" lengthAdjust="spacingAndGlyphs" textLength="36">Open</text><polygon fill="#A80036" points="115 284.227 105 288.227 115 292.227 111 288.227" style="stroke:#a80036;stroke-width:1"/><line style="stroke:#a80036;stroke-width:1;stroke-dasharray:2,2" x1="109" x2="263" y1="288.227" y2="288.227"/><text x="121" y="283.161" fill="#000" font-family="sans-serif" font-size="13" lengthAdjust="spacingAndGlyphs" textLength="68">error code</text><polygon fill="#A80036" points="715 313.359 725 317.359 715 321.359 719 317.359" style="stroke:#a80036;stroke-width:1"/><line style="stroke:#a80036;stroke-width:1" x1="491.5" x2="721" y1="317.359" y2="317.359"/><text x="498.5" y="312.293" fill="#000" font-family="sans-serif" font-size="13" lengthAdjust="spacingAndGlyphs" textLength="65">Pool::new</text><polygon fill="#A80036" points="866 342.492 876 346.492 866 350.492 870 346.492" style="stroke:#a80036;stroke-width:1"/><line style="stroke:#a80036;stroke-width:1" x1="737" x2="872" y1="346.492" y2="346.492"/><text x="744" y="341.426" fill="#000" font-family="sans-serif" font-size="13" lengthAdjust="spacingAndGlyphs" textLength="87">sync network</text><polygon fill="#A80036" points="748 371.625 738 375.625 748 379.625 744 375.625" style="stroke:#a80036;stroke-width:1"/><line style="stroke:#a80036;stroke-width:1;stroke-dasharray:2,2" x1="742" x2="877" y1="375.625" y2="375.625"/><text x="754" y="370.559" fill="#000" font-family="sans-serif" font-size="13" lengthAdjust="spacingAndGlyphs" textLength="117">fresh network info</text><polygon fill="#A80036" points="507.5 400.758 497.5 404.758 507.5 408.758 503.5 404.758" style="stroke:#a80036;stroke-width:1"/><line style="stroke:#a80036;stroke-width:1" x1="501.5" x2="726" y1="404.758" y2="404.758"/><text x="513.5" y="399.692" fill="#000" font-family="sans-serif" font-size="13" lengthAdjust="spacingAndGlyphs" textLength="59">OpenAck</text><line style="stroke:#a80036;stroke-width:1" x1="496.5" x2="538.5" y1="433.891" y2="433.891"/><line style="stroke:#a80036;stroke-width:1" x1="538.5" x2="538.5" y1="433.891" y2="446.891"/><line style="stroke:#a80036;stroke-width:1" x1="497.5" x2="538.5" y1="446.891" y2="446.891"/><polygon fill="#A80036" points="507.5 442.891 497.5 446.891 507.5 450.891 503.5 446.891" style="stroke:#a80036;stroke-width:1"/><text x="503.5" y="428.825" fill="#000" font-family="sans-serif" font-size="13" lengthAdjust="spacingAndGlyphs" textLength="110">execute callback</text><polygon fill="#A80036" points="115 472.023 105 476.023 115 480.023 111 476.023" style="stroke:#a80036;stroke-width:1"/><line style="stroke:#a80036;stroke-width:1;stroke-dasharray:2,2" x1="109" x2="490.5" y1="476.023" y2="476.023"/><text x="121" y="470.957" fill="#000" font-family="sans-serif" font-size="13" lengthAdjust="spacingAndGlyphs" textLength="78">pool_handle</text><path fill="#FBFB77" d="M8,489.0234 L8,529.0234 L196,529.0234 L196,499.0234 L186,489.0234 L8,489.0234" filter="url(#f16z2ieul6t5l3)" style="stroke:#a80036;stroke-width:1"/><path fill="#FBFB77" d="M186,489.0234 L186,499.0234 L196,499.0234 L186,489.0234" style="stroke:#a80036;stroke-width:1"/><text x="14" y="506.09" fill="#000" font-family="sans-serif" font-size="13" lengthAdjust="spacingAndGlyphs" textLength="157">From now on pool works</text><text x="14" y="521.223" fill="#000" font-family="sans-serif" font-size="13" lengthAdjust="spacingAndGlyphs" textLength="167">and requests can be sent</text><polygon fill="#A80036" points="247 555.422 257 559.422 247 563.422 251 559.422" style="stroke:#a80036;stroke-width:1"/><line style="stroke:#a80036;stroke-width:1" x1="104" x2="253" y1="559.422" y2="559.422"/><text x="111" y="554.356" fill="#000" font-family="sans-serif" font-size="13" lengthAdjust="spacingAndGlyphs" textLength="136">indy_submit_request</text><polygon fill="#A80036" points="474.5 584.555 484.5 588.555 474.5 592.555 478.5 588.555" style="stroke:#a80036;stroke-width:1"/><line style="stroke:#a80036;stroke-width:1" x1="269" x2="480.5" y1="588.555" y2="588.555"/><text x="276" y="583.489" fill="#000" font-family="sans-serif" font-size="13" lengthAdjust="spacingAndGlyphs" textLength="101">SubmitRequest</text><polygon fill="#A80036" points="115 613.688 105 617.688 115 621.688 111 617.688" style="stroke:#a80036;stroke-width:1"/><line style="stroke:#a80036;stroke-width:1;stroke-dasharray:2,2" x1="109" x2="263" y1="617.688" y2="617.688"/><text x="121" y="612.622" fill="#000" font-family="sans-serif" font-size="13" lengthAdjust="spacingAndGlyphs" textLength="68">error code</text><path fill="#FBFB77" d="M15,630.6875 L15,685.6875 L188,685.6875 L188,640.6875 L178,630.6875 L15,630.6875" filter="url(#f16z2ieul6t5l3)" style="stroke:#a80036;stroke-width:1"/><path fill="#FBFB77" d="M178,630.6875 L178,640.6875 L188,640.6875 L178,630.6875" style="stroke:#a80036;stroke-width:1"/><text x="21" y="647.754" fill="#000" font-family="sans-serif" font-size="13" lengthAdjust="spacingAndGlyphs" textLength="125">App waits for result</text><text x="21" y="662.887" fill="#000" font-family="sans-serif" font-size="13" lengthAdjust="spacingAndGlyphs" textLength="152">asynchronously if there</text><text x="21" y="678.02" fill="#000" font-family="sans-serif" font-size="13" lengthAdjust="spacingAndGlyphs" textLength="129">was no error before</text><line style="stroke:#a80036;stroke-width:1" x1="496.5" x2="538.5" y1="716.219" y2="716.219"/><line style="stroke:#a80036;stroke-width:1" x1="538.5" x2="538.5" y1="716.219" y2="729.219"/><line style="stroke:#a80036;stroke-width:1" x1="497.5" x2="538.5" y1="729.219" y2="729.219"/><polygon fill="#A80036" points="507.5 725.219 497.5 729.219 507.5 733.219 503.5 729.219" style="stroke:#a80036;stroke-width:1"/><text x="503.5" y="711.153" fill="#000" font-family="sans-serif" font-size="13" lengthAdjust="spacingAndGlyphs" textLength="52">send_tx</text><polygon fill="#A80036" points="715 754.352 725 758.352 715 762.352 719 758.352" style="stroke:#a80036;stroke-width:1"/><line style="stroke:#a80036;stroke-width:1" x1="491.5" x2="721" y1="758.352" y2="758.352"/><text x="498.5" y="753.286" fill="#000" font-family="sans-serif" font-size="13" lengthAdjust="spacingAndGlyphs" textLength="107">_send_message</text><path fill="#FBFB77" d="M379,771.3516 L379,826.3516 L600,826.3516 L600,781.3516 L590,771.3516 L379,771.3516" filter="url(#f16z2ieul6t5l3)" style="stroke:#a80036;stroke-width:1"/><path fill="#FBFB77" d="M590,771.3516 L590,781.3516 L600,781.3516 L590,771.3516" style="stroke:#a80036;stroke-width:1"/><text x="385" y="788.418" fill="#000" font-family="sans-serif" font-size="13" lengthAdjust="spacingAndGlyphs" textLength="200">Command thread can execute</text><text x="385" y="803.551" fill="#000" font-family="sans-serif" font-size="13" lengthAdjust="spacingAndGlyphs" textLength="155">other commands during</text><text x="385" y="818.684" fill="#000" font-family="sans-serif" font-size="13" lengthAdjust="spacingAndGlyphs" textLength="151">the work of pool thread</text><polygon fill="#A80036" points="866 852.883 876 856.883 866 860.883 870 856.883" style="stroke:#a80036;stroke-width:1"/><line style="stroke:#a80036;stroke-width:1" x1="737" x2="872" y1="856.883" y2="856.883"/><text x="744" y="851.817" fill="#000" font-family="sans-serif" font-size="13" lengthAdjust="spacingAndGlyphs" textLength="68">send(json)</text><polygon fill="#A80036" points="748 882.016 738 886.016 748 890.016 744 886.016" style="stroke:#a80036;stroke-width:1"/><line style="stroke:#a80036;stroke-width:1" x1="742" x2="877" y1="886.016" y2="886.016"/><text x="754" y="880.95" fill="#000" font-family="sans-serif" font-size="13" lengthAdjust="spacingAndGlyphs" textLength="68">responses</text><polygon fill="#A80036" points="507.5 911.148 497.5 915.148 507.5 919.148 503.5 915.148" style="stroke:#a80036;stroke-width:1"/><line style="stroke:#a80036;stroke-width:1;stroke-dasharray:2,2" x1="501.5" x2="726" y1="915.148" y2="915.148"/><text x="513.5" y="910.082" fill="#000" font-family="sans-serif" font-size="13" lengthAdjust="spacingAndGlyphs" textLength="141">aggregated response</text><line style="stroke:#a80036;stroke-width:1" x1="496.5" x2="538.5" y1="944.281" y2="944.281"/><line style="stroke:#a80036;stroke-width:1" x1="538.5" x2="538.5" y1="944.281" y2="957.281"/><line style="stroke:#a80036;stroke-width:1" x1="497.5" x2="538.5" y1="957.281" y2="957.281"/><polygon fill="#A80036" points="507.5 953.281 497.5 957.281 507.5 961.281 503.5 957.281" style="stroke:#a80036;stroke-width:1"/><text x="503.5" y="939.215" fill="#000" font-family="sans-serif" font-size="13" lengthAdjust="spacingAndGlyphs" textLength="110">execute callback</text><polygon fill="#A80036" points="115 982.414 105 986.414 115 990.414 111 986.414" style="stroke:#a80036;stroke-width:1"/><line style="stroke:#a80036;stroke-width:1;stroke-dasharray:2,2" x1="109" x2="490.5" y1="986.414" y2="986.414"/><text x="121" y="981.348" fill="#000" font-family="sans-serif" font-size="13" lengthAdjust="spacingAndGlyphs" textLength="37">result</text><path fill="#FBFB77" d="M9,999.4141 L9,1054.4141 L195,1054.4141 L195,1009.4141 L185,999.4141 L9,999.4141" filter="url(#f16z2ieul6t5l3)" style="stroke:#a80036;stroke-width:1"/><path fill="#FBFB77" d="M185,999.4141 L185,1009.4141 L195,1009.4141 L185,999.4141" style="stroke:#a80036;stroke-width:1"/><text x="15" y="1016.481" fill="#000" font-family="sans-serif" font-size="13" lengthAdjust="spacingAndGlyphs" textLength="151">When the work is over,</text><text x="15" y="1031.614" fill="#000" font-family="sans-serif" font-size="13" lengthAdjust="spacingAndGlyphs" textLength="165">you should close the pool</text><text x="15" y="1046.747" fill="#000" font-family="sans-serif" font-size="13" lengthAdjust="spacingAndGlyphs" textLength="153">and it will kill the thread</text><polygon fill="#A80036" points="247 1080.945 257 1084.945 247 1088.945 251 1084.945" style="stroke:#a80036;stroke-width:1"/><line style="stroke:#a80036;stroke-width:1" x1="104" x2="253" y1="1084.945" y2="1084.945"/><text x="111" y="1079.879" fill="#000" font-family="sans-serif" font-size="13" lengthAdjust="spacingAndGlyphs" textLength="102">indy_close_pool</text><polygon fill="#A80036" points="474.5 1110.078 484.5 1114.078 474.5 1118.078 478.5 1114.078" style="stroke:#a80036;stroke-width:1"/><line style="stroke:#a80036;stroke-width:1" x1="269" x2="480.5" y1="1114.078" y2="1114.078"/><text x="276" y="1109.012" fill="#000" font-family="sans-serif" font-size="13" lengthAdjust="spacingAndGlyphs" textLength="36">Close</text><polygon fill="#A80036" points="115 1139.211 105 1143.211 115 1147.211 111 1143.211" style="stroke:#a80036;stroke-width:1"/><line style="stroke:#a80036;stroke-width:1" x1="109" x2="263" y1="1143.211" y2="1143.211"/><text x="121" y="1138.145" fill="#000" font-family="sans-serif" font-size="13" lengthAdjust="spacingAndGlyphs" textLength="68">error code</text><polygon fill="#A80036" points="720 1168.344 730 1172.344 720 1176.344 724 1172.344" style="stroke:#a80036;stroke-width:1"/><line style="stroke:#a80036;stroke-width:1" x1="496.5" x2="726" y1="1172.344" y2="1172.344"/><text x="503.5" y="1167.278" fill="#000" font-family="sans-serif" font-size="13" lengthAdjust="spacingAndGlyphs" textLength="71">Pool::close</text><line style="stroke:#a80036;stroke-width:1" x1="496.5" x2="538.5" y1="1201.477" y2="1201.477"/><line style="stroke:#a80036;stroke-width:1" x1="538.5" x2="538.5" y1="1201.477" y2="1214.477"/><line style="stroke:#a80036;stroke-width:1" x1="497.5" x2="538.5" y1="1214.477" y2="1214.477"/><polygon fill="#A80036" points="507.5 1210.477 497.5 1214.477 507.5 1218.477 503.5 1214.477" style="stroke:#a80036;stroke-width:1"/><text x="503.5" y="1196.411" fill="#000" font-family="sans-serif" font-size="13" lengthAdjust="spacingAndGlyphs" textLength="110">execute callback</text><polygon fill="#A80036" points="115 1239.609 105 1243.609 115 1247.609 111 1243.609" style="stroke:#a80036;stroke-width:1"/><line style="stroke:#a80036;stroke-width:1;stroke-dasharray:2,2" x1="109" x2="490.5" y1="1243.609" y2="1243.609"/><text x="121" y="1238.543" fill="#000" font-family="sans-serif" font-size="13" lengthAdjust="spacingAndGlyphs" textLength="68">error code</text></g></svg>