<svg xmlns="http://www.w3.org/2000/svg" xmlns:xlink="http://www.w3.org/1999/xlink" width="777" height="611" contentScriptType="application/ecmascript" contentStyleType="text/css" style="width:777px;height:611px" preserveAspectRatio="none" version="1.1" viewBox="0 0 777 611" zoomAndPan="magnify"><defs><filter id="f19e81owh52y68" width="300%" height="300%" x="-1" y="-1"><feGaussianBlur result="blurOut" stdDeviation="2"/><feColorMatrix in="blurOut" result="blurOut2" type="matrix" values="0 0 0 0 0 0 0 0 0 0 0 0 0 0 0 0 0 0 .4 0"/><feOffset dx="4" dy="4" in="blurOut2" result="blurOut3"/><feBlend in="SourceGraphic" in2="blurOut3" mode="normal"/></filter></defs><g><polygon fill="#FFF" points="22 70 90 70 97 93.609 755 93.609 755 519 22 519 22 70" filter="url(#f19e81owh52y68)" style="stroke:#000;stroke-width:1.5"/><line style="stroke:#000;stroke-width:1.5" x1="22" x2="97" y1="93.609" y2="93.609"/><text x="26" y="86.533" fill="#000" font-family="sans-serif" font-size="14" font-weight="bold" lengthAdjust="spacingAndGlyphs" textLength="62">Indy SDK</text><ellipse cx="459" cy="136" fill="#FEFECE" filter="url(#f19e81owh52y68)" rx="8" ry="8" style="stroke:#a80036;stroke-width:2"/><text x="415.5" y="167.533" fill="#000" font-family="sans-serif" font-size="14" lengthAdjust="spacingAndGlyphs" textLength="87">Payments API</text><polygon fill="#FBFB77" points="545 114.5 545 157.203 739 157.203 739 124.5 729 114.5 545 114.5" filter="url(#f19e81owh52y68)" style="stroke:#a80036;stroke-width:1"/><polygon fill="#FBFB77" points="545 114.5 545 132 468.248 136 545 140 545 157.203 739 157.203 739 124.5 729 114.5 545 114.5" style="stroke:#a80036;stroke-width:1"/><line style="stroke:#a80036;stroke-width:1" x1="729" x2="729" y1="114.5" y2="124.5"/><line style="stroke:#a80036;stroke-width:1" x1="739" x2="729" y1="124.5" y2="124.5"/><text x="551" y="132.995" fill="#000" font-family="sans-serif" font-size="13" lengthAdjust="spacingAndGlyphs" textLength="173">An API that allows applciation</text><text x="551" y="149.347" fill="#000" font-family="sans-serif" font-size="13" lengthAdjust="spacingAndGlyphs" textLength="130">to work with payments</text><ellipse cx="300" cy="136" fill="#FEFECE" filter="url(#f19e81owh52y68)" rx="8" ry="8" style="stroke:#a80036;stroke-width:2"/><text x="234.5" y="167.533" fill="#000" font-family="sans-serif" font-size="14" lengthAdjust="spacingAndGlyphs" textLength="131">Payment Method API</text><polygon fill="#FBFB77" points="38.5 106.5 38.5 165.555 191.5 165.555 191.5 116.5 181.5 106.5 38.5 106.5" filter="url(#f19e81owh52y68)" style="stroke:#a80036;stroke-width:1"/><polygon fill="#FBFB77" points="38.5 106.5 38.5 165.555 191.5 165.555 191.5 140 280.768 136 191.5 132 191.5 116.5 181.5 106.5 38.5 106.5" style="stroke:#a80036;stroke-width:1"/><line style="stroke:#a80036;stroke-width:1" x1="181.5" x2="181.5" y1="106.5" y2="116.5"/><line style="stroke:#a80036;stroke-width:1" x1="191.5" x2="181.5" y1="116.5" y2="116.5"/><text x="44.5" y="124.995" fill="#000" font-family="sans-serif" font-size="13" lengthAdjust="spacingAndGlyphs" textLength="107">An API that allows</text><text x="44.5" y="141.347" fill="#000" font-family="sans-serif" font-size="13" lengthAdjust="spacingAndGlyphs" textLength="132">registration of payment</text><text x="44.5" y="157.698" fill="#000" font-family="sans-serif" font-size="13" lengthAdjust="spacingAndGlyphs" textLength="50">methods</text><rect style="stroke:#a80036;stroke-width:1.5" width="81" height="37.609" x="306.5" y="226" fill="#FEFECE" filter="url(#f19e81owh52y68)"/><rect style="stroke:#a80036;stroke-width:1.5" width="10" height="5" x="301.5" y="231" fill="#FEFECE"/><rect style="stroke:#a80036;stroke-width:1.5" width="10" height="5" x="301.5" y="253.609" fill="#FEFECE"/><text x="316.5" y="250.533" fill="#000" font-family="sans-serif" font-size="14" lengthAdjust="spacingAndGlyphs" textLength="61">API Layer</text><rect style="stroke:#a80036;stroke-width:1.5" width="126" height="37.609" x="284" y="334.5" fill="#FEFECE" filter="url(#f19e81owh52y68)"/><rect style="stroke:#a80036;stroke-width:1.5" width="10" height="5" x="279" y="339.5" fill="#FEFECE"/><rect style="stroke:#a80036;stroke-width:1.5" width="10" height="5" x="279" y="362.109" fill="#FEFECE"/><text x="294" y="359.033" fill="#000" font-family="sans-serif" font-size="14" lengthAdjust="spacingAndGlyphs" textLength="106">Payment Service</text><polygon fill="#FBFB77" points="445.5 324 445.5 383.055 690.5 383.055 690.5 334 680.5 324 445.5 324" filter="url(#f19e81owh52y68)" style="stroke:#a80036;stroke-width:1"/><polygon fill="#FBFB77" points="445.5 324 445.5 349.5 410.02 353.5 445.5 357.5 445.5 383.055 690.5 383.055 690.5 334 680.5 324 445.5 324" style="stroke:#a80036;stroke-width:1"/><line style="stroke:#a80036;stroke-width:1" x1="680.5" x2="680.5" y1="324" y2="334"/><line style="stroke:#a80036;stroke-width:1" x1="690.5" x2="680.5" y1="334" y2="334"/><text x="451.5" y="342.495" fill="#000" font-family="sans-serif" font-size="13" lengthAdjust="spacingAndGlyphs" textLength="224">Stores all registered payment methods</text><text x="451.5" y="358.847" fill="#000" font-family="sans-serif" font-size="13" lengthAdjust="spacingAndGlyphs" textLength="192">and perform requests dispatching</text><text x="451.5" y="375.198" fill="#000" font-family="sans-serif" font-size="13" lengthAdjust="spacingAndGlyphs" textLength="194">to corresponded payment method</text><ellipse cx="347" cy="473" fill="#FEFECE" filter="url(#f19e81owh52y68)" rx="8" ry="8" style="stroke:#a80036;stroke-width:2"/><text x="238" y="504.533" fill="#000" font-family="sans-serif" font-size="14" lengthAdjust="spacingAndGlyphs" textLength="218">Payment Method Handler Interface</text><rect style="stroke:#a80036;stroke-width:1.5" width="89" height="37.609" x="334.5" y="8" fill="#FEFECE" filter="url(#f19e81owh52y68)"/><rect style="stroke:#a80036;stroke-width:1.5" width="10" height="5" x="329.5" y="13" fill="#FEFECE"/><rect style="stroke:#a80036;stroke-width:1.5" width="10" height="5" x="329.5" y="35.609" fill="#FEFECE"/><text x="344.5" y="32.533" fill="#000" font-family="sans-serif" font-size="14" lengthAdjust="spacingAndGlyphs" textLength="69">Application</text><rect style="stroke:#a80036;stroke-width:1.5" width="170" height="37.609" x="157" y="563" fill="#FEFECE" filter="url(#f19e81owh52y68)"/><rect style="stroke:#a80036;stroke-width:1.5" width="10" height="5" x="152" y="568" fill="#FEFECE"/><rect style="stroke:#a80036;stroke-width:1.5" width="10" height="5" x="152" y="590.609" fill="#FEFECE"/><text x="167" y="587.533" fill="#000" font-family="sans-serif" font-size="14" lengthAdjust="spacingAndGlyphs" textLength="150">Sovrin Payment Method</text><rect style="stroke:#a80036;stroke-width:1.5" width="180" height="37.609" x="362" y="563" fill="#FEFECE" filter="url(#f19e81owh52y68)"/><rect style="stroke:#a80036;stroke-width:1.5" width="10" height="5" x="357" y="568" fill="#FEFECE"/><rect style="stroke:#a80036;stroke-width:1.5" width="10" height="5" x="357" y="590.609" fill="#FEFECE"/><text x="372" y="587.533" fill="#000" font-family="sans-serif" font-size="14" lengthAdjust="spacingAndGlyphs" textLength="160">Another Payment Method</text><path id="application-i_payments_api" fill="none" d="M392.571,46.151 C408.763,67.808 435.413,103.452 449.534,122.339" style="stroke:#a80036;stroke-width:1;stroke-dasharray:7,7"/><polygon fill="#A80036" points="452.84 126.761 450.654 117.158 449.846 122.757 444.247 121.949 452.84 126.761" style="stroke:#a80036;stroke-width:1"/><path id="application-i_payment_method_api" fill="none" d="M365.599,46.151 C349.609,67.808 323.292,103.452 309.348,122.339" style="stroke:#a80036;stroke-width:1;stroke-dasharray:7,7"/><polygon fill="#A80036" points="306.083 126.761 314.647 121.896 309.053 122.739 308.211 117.145 306.083 126.761" style="stroke:#a80036;stroke-width:1"/><path id="i_payments_api-indy_api" fill="none" d="M450.582,145.042 C432.776,162.053 390.91,202.05 366.2,225.657" style="stroke:#a80036;stroke-width:1"/><path id="i_payment_method_api-indy_api" fill="none" d="M303.533,145.042 C311.005,162.053 328.573,202.05 338.943,225.657" style="stroke:#a80036;stroke-width:1"/><path id="indy_api-payment_service" fill="none" d="M347,264.066 C347,282.044 347,309.705 347,329.298" style="stroke:#a80036;stroke-width:1;stroke-dasharray:7,7"/><polygon fill="#A80036" points="347 334.345 351 325.345 347 329.345 343 325.345 347 334.345" style="stroke:#a80036;stroke-width:1"/><path id="payment_service-i_payment_handler_method" fill="none" d="M347,372.602 C347,396.358 347,437.505 347,458.633" style="stroke:#a80036;stroke-width:1;stroke-dasharray:7,7"/><polygon fill="#A80036" points="347 463.791 351 454.791 347 458.791 343 454.791 347 463.791" style="stroke:#a80036;stroke-width:1"/><path id="i_payment_handler_method-sovrin_payment_method" fill="none" d="M339.108,482.042 C322.415,499.053 283.166,539.0498 260,562.6574" style="stroke:#a80036;stroke-width:1"/><path id="i_payment_handler_method-another_payment_method" fill="none" d="M354.892,482.042 C371.585,499.053 410.834,539.0498 434,562.6574" style="stroke:#a80036;stroke-width:1"/></g></svg>